<?xml version="1.0" standalone="no"?>
<!DOCTYPE svg PUBLIC "-//W3C//DTD SVG 20010904//EN"
 "http://www.w3.org/TR/2001/REC-SVG-20010904/DTD/svg10.dtd">
<svg version="1.0" xmlns="http://www.w3.org/2000/svg"
 width="600.000000pt" height="600.000000pt" viewBox="0 0 600.000000 600.000000"
 preserveAspectRatio="xMidYMid meet">

<g transform="translate(0.000000,600.000000) scale(0.100000,-0.100000)"
fill="#000000" stroke="none">
<path d="M2850 5222 c-19 -2 -38 -9 -42 -15 -6 -9 -8 -9 -8 1 0 6 -9 12 -21
12 -11 0 -18 -3 -16 -7 3 -5 -32 -9 -77 -10 -109 -3 -177 -11 -191 -23 -6 -5
-14 -7 -17 -4 -3 3 -32 -2 -65 -10 -201 -52 -435 -150 -577 -241 -30 -19 -58
-35 -61 -35 -23 0 -226 -169 -340 -284 -178 -179 -243 -260 -365 -451 -115
-180 -205 -428 -265 -725 -24 -116 -27 -150 -22 -240 5 -78 2 -118 -8 -155
-19 -62 -19 -139 0 -268 9 -56 18 -122 21 -147 3 -25 9 -47 12 -50 4 -3 8 -18
10 -35 4 -32 44 -179 93 -339 54 -172 167 -378 306 -553 86 -108 333 -356 423
-425 211 -160 452 -281 734 -368 79 -25 113 -39 100 -43 -10 -3 -61 -18 -113
-32 -135 -38 -276 -114 -252 -138 20 -20 267 -29 651 -24 401 6 566 15 789 43
238 29 269 45 178 87 -29 14 -80 33 -115 42 -35 10 -59 21 -55 25 4 5 43 18
86 30 98 27 272 92 345 129 111 56 342 216 342 236 0 6 -3 6 -8 -1 -4 -6 -18
-16 -32 -23 -22 -11 -22 -9 5 13 17 14 36 26 43 26 6 0 12 5 12 10 0 6 6 10
14 8 8 -2 22 6 31 17 9 11 13 13 9 5 -4 -8 8 -1 27 16 19 18 57 51 84 75 109
95 238 240 343 386 52 72 59 88 45 96 -5 2 -3 2 4 1 16 -4 26 10 78 112 82
158 147 323 141 352 -5 20 -4 23 4 12 7 -12 10 -8 10 16 0 17 6 49 14 70 25
72 48 208 41 249 -4 31 0 53 17 91 21 45 23 63 22 204 -1 104 -6 180 -17 230
-10 41 -17 103 -17 137 0 97 -33 242 -99 434 -82 239 -173 412 -311 594 -158
208 -428 451 -632 567 -40 23 -75 45 -78 49 -3 3 -22 12 -42 20 -21 7 -38 17
-38 21 0 4 -8 8 -17 8 -10 0 -26 7 -36 15 -11 7 -26 11 -35 8 -9 -4 -13 -2 -9
4 4 6 -29 24 -81 43 -48 19 -91 37 -97 41 -14 10 -125 38 -125 32 0 -3 -7 0
-15 7 -9 7 -26 10 -42 6 -20 -5 -24 -4 -14 3 11 7 5 11 -25 17 -21 4 -46 8
-54 9 -9 0 -20 4 -27 8 -6 4 -18 4 -26 1 -8 -3 -18 -1 -22 5 -8 13 -75 15 -75
2 0 -6 -12 -6 -31 -1 -49 14 -341 29 -419 22z m860 -122 c0 -5 -2 -10 -4 -10
-3 0 -8 5 -11 10 -3 6 -1 10 4 10 6 0 11 -4 11 -10z m-490 -65 c-7 -9 -15 -13
-19 -10 -3 3 1 10 9 15 21 14 24 12 10 -5z m197 -21 c-3 -3 -12 -4 -19 -1 -8
3 -5 6 6 6 11 1 17 -2 13 -5z m88 -44 c3 -5 1 -10 -4 -10 -6 0 -11 5 -11 10 0
6 2 10 4 10 3 0 8 -4 11 -10z m-250 -10 c-3 -5 -16 -10 -28 -9 -20 1 -20 2 3
9 14 4 26 8 28 9 2 1 0 -3 -3 -9z m222 4 c-3 -3 -12 -4 -19 -1 -8 3 -5 6 6 6
11 1 17 -2 13 -5z m-42 -14 c-3 -5 -12 -10 -18 -10 -7 0 -6 4 3 10 19 12 23
12 15 0z m239 -5 c-4 -8 -11 -15 -16 -15 -6 0 -5 6 2 15 7 8 14 15 16 15 2 0
1 -7 -2 -15z m-624 -5 c0 -5 -5 -10 -11 -10 -5 0 -7 5 -4 10 3 6 8 10 11 10 2
0 4 -4 4 -10z m247 4 c-3 -3 -12 -4 -19 -1 -8 3 -5 6 6 6 11 1 17 -2 13 -5z
m250 0 c-3 -3 -12 -4 -19 -1 -8 3 -5 6 6 6 11 1 17 -2 13 -5z m-337 -24 c0 -5
-5 -10 -11 -10 -5 0 -7 5 -4 10 3 6 8 10 11 10 2 0 4 -4 4 -10z m113 3 c-7 -2
-19 -2 -25 0 -7 3 -2 5 12 5 14 0 19 -2 13 -5z m200 0 c-7 -2 -19 -2 -25 0 -7
3 -2 5 12 5 14 0 19 -2 13 -5z m46 -6 c-16 -7 -24 -18 -21 -27 4 -12 2 -13 -9
-2 -12 11 -11 16 5 28 11 8 27 14 35 13 10 0 5 -5 -10 -12z m-502 -3 c-3 -3
-12 -4 -19 -1 -8 3 -5 6 6 6 11 1 17 -2 13 -5z m63 -29 c0 -5 -5 -3 -10 5 -5
8 -10 20 -10 25 0 6 5 3 10 -5 5 -8 10 -19 10 -25z m119 22 c-2 -1 -13 -9 -24
-17 -19 -14 -19 -14 -6 3 7 9 18 17 24 17 6 0 8 -1 6 -3z m241 -7 c0 -5 -2
-10 -4 -10 -2 0 -12 -3 -22 -7 -16 -6 -17 -5 -4 10 17 19 30 22 30 7z m-163
-6 c-3 -3 -12 -4 -19 -1 -8 3 -5 6 6 6 11 1 17 -2 13 -5z m436 -14 c3 -11 2
-22 -2 -24 -4 -3 -8 6 -9 20 -2 29 4 31 11 4z m-483 0 c0 -5 -5 -10 -11 -10
-5 0 -7 5 -4 10 3 6 8 10 11 10 2 0 4 -4 4 -10z m255 -12 c6 -4 2 -8 -7 -8
-10 0 -18 7 -18 17 0 9 3 12 8 7 4 -5 12 -12 17 -16z m-100 2 c3 -6 -1 -7 -9
-4 -18 7 -21 14 -7 14 6 0 13 -4 16 -10z m212 4 c-3 -3 -12 -4 -19 -1 -8 3 -5
6 6 6 11 1 17 -2 13 -5z m158 -4 c3 -5 1 -10 -4 -10 -6 0 -11 5 -11 10 0 6 2
10 4 10 3 0 8 -4 11 -10z m-755 -4 c0 -3 -4 -8 -10 -11 -5 -3 -10 -1 -10 4 0
6 5 11 10 11 6 0 10 -2 10 -4z m75 -6 c-3 -5 -14 -10 -23 -9 -14 0 -13 2 3 9
27 11 27 11 20 0z m82 4 c-3 -3 -12 -4 -19 -1 -8 3 -5 6 6 6 11 1 17 -2 13 -5z
m186 -1 c-7 -2 -19 -2 -25 0 -7 3 -2 5 12 5 14 0 19 -2 13 -5z m92 -3 c3 -5 1
-10 -4 -10 -6 0 -11 5 -11 10 0 6 2 10 4 10 3 0 8 -4 11 -10z m210 -30 c-6 -9
-9 -9 -16 1 -10 17 0 34 13 21 6 -6 7 -16 3 -22z m-858 -12 c-3 -7 -5 -2 -5
12 0 14 2 19 5 13 2 -7 2 -19 0 -25z m510 26 c-3 -3 -12 -4 -19 -1 -8 3 -5 6
6 6 11 1 17 -2 13 -5z m101 -3 c11 -7 11 -11 -2 -23 -17 -18 -11 -28 18 -28
16 0 17 -3 8 -12 -10 -10 -17 -7 -35 11 -15 16 -18 25 -9 28 19 7 14 21 -10
26 -20 4 -20 4 -3 5 11 1 26 -2 33 -7z m189 3 c-3 -3 -12 -4 -19 -1 -8 3 -5 6
6 6 11 1 17 -2 13 -5z m-557 -25 c0 -5 -4 -9 -8 -9 -5 0 -9 7 -9 15 0 8 4 12
9 9 4 -3 8 -9 8 -15z m312 3 c-18 -6 -15 -20 6 -25 15 -4 15 -5 0 -6 -9 0 -19
3 -22 8 -9 14 5 42 17 34 8 -5 7 -8 -1 -11z m350 -7 c-8 -16 -9 -16 -15 -1 -4
10 -3 15 3 11 6 -3 10 -1 10 6 0 7 3 10 6 6 3 -3 2 -13 -4 -22z m102 -2 c-4
-15 -7 -33 -7 -39 0 -7 -7 -10 -15 -7 -7 3 -9 9 -4 12 5 3 12 18 16 34 3 15 9
27 11 27 3 0 2 -12 -1 -27z m-819 7 c-3 -5 -12 -10 -18 -10 -7 0 -6 4 3 10 19
12 23 12 15 0z m259 -5 c-4 -8 -8 -15 -10 -15 -2 0 -4 7 -4 15 0 8 4 15 10 15
5 0 7 -7 4 -15z m261 5 c3 -6 -1 -7 -9 -4 -18 7 -21 14 -7 14 6 0 13 -4 16
-10z m119 -2 c-7 -10 -35 -10 -51 0 -8 5 1 8 22 8 18 0 31 -4 29 -8z m403 6
c-3 -3 -12 -4 -19 -1 -8 3 -5 6 6 6 11 1 17 -2 13 -5z m-1137 -14 c0 -5 -5
-10 -11 -10 -5 0 -7 5 -4 10 3 6 8 10 11 10 2 0 4 -4 4 -10z m300 0 c0 -5 -5
-10 -11 -10 -6 0 -19 -10 -30 -22 -10 -13 -18 -18 -19 -11 0 6 12 21 26 32 30
24 34 25 34 11z m280 0 c0 -5 -8 -10 -17 -10 -15 0 -16 2 -3 10 19 12 20 12
20 0z m492 -17 c-5 -10 -7 -24 -5 -30 3 -8 -4 -13 -15 -13 -11 0 -23 -6 -25
-12 -4 -10 -6 -10 -6 0 -1 7 8 16 20 20 11 5 20 12 20 17 -1 16 11 47 16 42 2
-3 0 -14 -5 -24z m-1342 13 c0 -2 -8 -10 -17 -17 -16 -13 -17 -12 -4 4 13 16
21 21 21 13z m190 -16 c-13 -11 -26 -18 -28 -15 -6 6 28 34 42 35 5 0 -1 -9
-14 -20z m248 6 c-10 -7 -18 -18 -18 -25 0 -6 -5 -11 -10 -11 -14 0 5 36 22
43 22 9 24 7 6 -7z m630 -6 c10 -17 10 -20 -5 -20 -9 0 -13 3 -10 7 4 3 2 12
-4 20 -6 7 -7 13 -3 13 5 0 15 -9 22 -20z m162 10 c0 -5 -5 -10 -11 -10 -5 0
-7 5 -4 10 3 6 8 10 11 10 2 0 4 -4 4 -10z m-644 -28 c-6 -19 -44 -37 -55 -26
-3 3 5 7 17 10 12 4 24 15 28 26 3 11 8 17 11 15 3 -3 2 -14 -1 -25z m327 21
c-7 -2 -21 -2 -30 0 -10 3 -4 5 12 5 17 0 24 -2 18 -5z m50 0 c-7 -2 -19 -2
-25 0 -7 3 -2 5 12 5 14 0 19 -2 13 -5z m57 -3 c0 -5 -5 -10 -11 -10 -5 0 -7
5 -4 10 3 6 8 10 11 10 2 0 4 -4 4 -10z m100 0 c-12 -8 -13 -11 -1 -19 7 -5 9
-11 4 -14 -6 -4 -15 5 -21 18 -10 23 -9 25 11 25 18 0 19 -2 7 -10z m-1253
-22 c-3 -8 -6 -5 -6 6 -1 11 2 17 5 13 3 -3 4 -12 1 -19z m613 18 c0 -3 -4 -8
-10 -11 -5 -3 -10 -1 -10 4 0 6 5 11 10 11 6 0 10 -2 10 -4z m820 -6 c0 -5 -7
-7 -15 -4 -8 4 -15 1 -15 -7 0 -7 -3 -10 -6 -6 -9 9 5 27 22 27 8 0 14 -4 14
-10z m97 4 c-3 -3 -12 -4 -19 -1 -8 3 -5 6 6 6 11 1 17 -2 13 -5z m-677 -21
c0 -11 -3 -14 -8 -7 -4 6 -14 14 -22 17 -10 4 -8 6 8 6 15 1 22 -5 22 -16z
m154 10 c-5 -5 -12 -12 -16 -18 -4 -6 -8 -2 -8 8 0 9 7 17 17 17 9 0 12 -3 7
-7z m-264 -28 c-7 -9 -15 -13 -17 -11 -6 6 20 36 26 30 2 -2 -2 -10 -9 -19z
m178 -23 c-12 -2 -18 -12 -18 -28 0 -16 -5 -24 -17 -23 -11 0 -13 3 -5 6 6 2
12 13 12 23 0 10 -6 21 -12 24 -7 3 -4 4 6 3 10 -1 21 4 23 11 3 6 0 12 -6 12
-6 0 -11 6 -11 12 0 7 11 1 23 -12 22 -23 22 -25 5 -28z m127 39 c-3 -6 3 -14
12 -20 10 -6 13 -11 8 -11 -13 0 -35 20 -35 32 0 4 5 8 11 8 5 0 8 -4 4 -9z
m42 3 c-3 -3 -12 -4 -19 -1 -8 3 -5 6 6 6 11 1 17 -2 13 -5z m257 -19 c-4 -8
-10 -13 -15 -10 -4 3 -6 12 -3 20 4 8 10 13 15 10 4 -3 6 -12 3 -20z m-384 5
c0 -5 -2 -10 -4 -10 -3 0 -8 5 -11 10 -3 6 -1 10 4 10 6 0 11 -4 11 -10z m220
-11 c0 -11 4 -18 9 -15 5 3 12 -1 15 -9 4 -13 2 -14 -14 -5 -11 6 -20 17 -20
25 0 7 -6 16 -12 18 -8 3 -6 6 5 6 11 1 17 -6 17 -20z m60 -13 c0 -3 -7 -6
-15 -6 -9 0 -15 9 -15 21 0 18 2 19 15 5 8 -8 15 -17 15 -20z m-893 2 c-3 -8
-6 -5 -6 6 -1 11 2 17 5 13 3 -3 4 -12 1 -19z m50 0 c-3 -8 -6 -5 -6 6 -1 11
2 17 5 13 3 -3 4 -12 1 -19z m623 12 c0 -5 -4 -10 -10 -10 -5 0 -10 5 -10 10
0 6 5 10 10 10 6 0 10 -4 10 -10z m80 6 c0 -3 -4 -8 -10 -11 -5 -3 -10 -1 -10
4 0 6 5 11 10 11 6 0 10 -2 10 -4z m35 -6 c3 -6 -1 -7 -9 -4 -18 7 -21 14 -7
14 6 0 13 -4 16 -10z m175 0 c0 -5 -4 -10 -10 -10 -5 0 -10 5 -10 10 0 6 5 10
10 10 6 0 10 -4 10 -10z m83 -11 c4 -16 3 -18 -9 -8 -7 6 -11 15 -8 20 8 13
11 11 17 -12z m-540 -20 c-5 -18 -18 -18 -18 -1 0 4 -4 12 -8 19 -5 7 -1 10
12 6 13 -3 17 -11 14 -24z m427 27 c0 -3 -4 -8 -10 -11 -5 -3 -10 -1 -10 4 0
6 5 11 10 11 6 0 10 -2 10 -4z m245 -6 c-41 -10 -65 -12 -65 -2 0 4 21 8 48 9
40 1 42 0 17 -7z m-1245 -20 c-11 -11 -23 -20 -27 -20 -3 0 2 9 12 20 10 11
22 20 27 20 4 0 -1 -9 -12 -20z m170 16 c0 -2 -7 -7 -16 -10 -8 -3 -12 -2 -9
4 6 10 25 14 25 6z m147 -15 c0 -11 -5 -18 -9 -15 -4 3 -5 11 -1 19 7 21 12
19 10 -4z m63 4 c0 -12 -19 -12 -23 0 -4 9 -1 12 9 8 7 -3 14 -7 14 -8z m40 5
c0 -5 -8 -10 -17 -10 -15 0 -16 2 -3 10 19 12 20 12 20 0z m97 4 c-3 -3 -12
-4 -19 -1 -8 3 -5 6 6 6 11 1 17 -2 13 -5z m601 -25 l27 -1 -25 -7 c-17 -5
-21 -9 -12 -15 7 -4 10 -12 7 -17 -4 -5 1 -12 9 -15 9 -3 16 -11 16 -16 0 -19
-31 15 -48 51 -22 49 -25 59 -12 39 6 -10 23 -18 38 -19z m-908 17 c0 -3 -4
-8 -10 -11 -5 -3 -10 -1 -10 4 0 6 5 11 10 11 6 0 10 -2 10 -4z m265 -6 c-3
-5 -11 -10 -16 -10 -6 0 -7 5 -4 10 3 6 11 10 16 10 6 0 7 -4 4 -10z m280 0
c-3 -5 -12 -10 -18 -10 -7 0 -6 4 3 10 19 12 23 12 15 0z m40 -1 c11 -17 -1
-21 -15 -4 -8 9 -8 15 -2 15 6 0 14 -5 17 -11z m50 1 c-28 -12 -37 -12 -30 0
3 6 16 10 28 9 21 0 21 -1 2 -9z m205 0 c0 -5 -5 -10 -11 -10 -5 0 -7 5 -4 10
3 6 8 10 11 10 2 0 4 -4 4 -10z m115 0 c3 -5 1 -10 -4 -10 -6 0 -11 5 -11 10
0 6 2 10 4 10 3 0 8 -4 11 -10z m-1288 -22 c-3 -8 -6 -5 -6 6 -1 11 2 17 5 13
3 -3 4 -12 1 -19z m643 12 c0 -5 -5 -10 -11 -10 -5 0 -7 5 -4 10 3 6 8 10 11
10 2 0 4 -4 4 -10z m145 0 c3 -5 1 -10 -4 -10 -6 0 -11 5 -11 10 0 6 2 10 4
10 3 0 8 -4 11 -10z m55 0 c0 -5 -8 -10 -17 -10 -15 0 -16 2 -3 10 19 12 20
12 20 0z m176 -2 c4 -6 3 -8 -4 -4 -5 3 -13 0 -15 -6 -3 -8 -6 -6 -6 5 -1 19
14 23 25 5z m84 2 c0 -5 -5 -10 -11 -10 -5 0 -7 5 -4 10 3 6 8 10 11 10 2 0 4
-4 4 -10z m270 0 c-8 -5 -19 -10 -25 -10 -5 0 -3 5 5 10 8 5 20 10 25 10 6 0
3 -5 -5 -10z m-804 -22 c4 -13 2 -24 -5 -26 -6 -2 -9 -8 -5 -13 3 -5 -2 -9
-10 -9 -20 0 -20 5 0 25 13 12 14 19 4 30 -8 10 -9 15 -2 15 6 0 14 -10 18
-22z m35 -1 c-10 -9 -11 -8 -5 6 3 10 9 15 12 12 3 -3 0 -11 -7 -18z m363 -1
c-14 -37 -83 -47 -114 -16 -11 11 -16 20 -11 20 5 0 17 -7 25 -16 20 -20 66
-11 86 16 16 23 23 20 14 -4z m109 5 c3 -15 0 -17 -17 -13 -17 5 -19 3 -9 -9
8 -10 9 -20 3 -29 -8 -13 -10 -12 -10 3 0 23 -29 34 -42 16 -8 -12 -9 -12 -6
1 3 8 19 18 36 22 18 5 32 13 32 18 0 16 7 11 13 -9z m-703 5 c0 -2 -9 -6 -20
-9 -11 -3 -20 -1 -20 4 0 5 9 9 20 9 11 0 20 -2 20 -4z m94 -14 c-6 -4 -14
-17 -18 -28 -8 -25 -46 -72 -46 -57 0 6 7 16 15 23 8 6 17 22 21 33 8 28 25
49 33 42 3 -3 1 -9 -5 -13z m56 3 c0 -8 -7 -15 -15 -15 -13 0 -14 3 -3 15 16
18 18 18 18 0z m380 5 c0 -5 -4 -10 -10 -10 -5 0 -10 5 -10 10 0 6 5 10 10 10
6 0 10 -4 10 -10z m255 0 c3 -5 1 -10 -4 -10 -6 0 -11 5 -11 10 0 6 2 10 4 10
3 0 8 -4 11 -10z m35 0 c0 -5 -2 -10 -4 -10 -3 0 -8 5 -11 10 -3 6 -1 10 4 10
6 0 11 -4 11 -10z m220 -5 c0 -12 -19 -12 -23 0 -4 9 -1 12 9 8 7 -3 14 -7 14
-8z m-726 -10 c-4 -8 -1 -15 6 -15 10 0 10 -3 0 -15 -7 -8 -19 -15 -26 -15 -8
0 -14 -5 -14 -11 0 -5 -4 -7 -10 -4 -6 4 -5 11 3 19 6 8 15 12 19 10 4 -2 9 0
12 5 4 5 2 12 -3 16 -14 8 -61 -5 -61 -17 0 -5 -7 -16 -15 -24 -13 -14 -15
-14 -15 0 0 9 5 16 11 16 5 0 8 4 4 9 -7 12 9 22 49 32 45 10 46 10 40 -6z
m99 8 c-18 -7 -16 -23 2 -23 8 0 15 -7 15 -15 0 -8 5 -15 10 -15 6 0 10 -7 10
-15 0 -9 -11 -4 -31 16 -30 29 -34 60 -7 58 10 0 10 -2 1 -6z m37 -3 c0 -5 -5
-10 -11 -10 -5 0 -7 5 -4 10 3 6 8 10 11 10 2 0 4 -4 4 -10z m300 0 c0 -5 -4
-10 -10 -10 -5 0 -10 5 -10 10 0 6 5 10 10 10 6 0 10 -4 10 -10z m-910 -9 c0
-5 -7 -11 -14 -14 -10 -4 -13 -1 -9 9 6 15 23 19 23 5z m1073 -11 c3 -11 3
-20 1 -20 -2 0 -8 9 -14 20 -6 11 -7 20 -2 20 6 0 12 -9 15 -20z m37 -15 c0
-5 -5 -3 -10 5 -5 8 -10 20 -10 25 0 6 5 3 10 -5 5 -8 10 -19 10 -25z m-966
10 c-4 -8 -11 -12 -16 -9 -6 4 -5 10 3 15 19 12 19 11 13 -6z m878 -20 c14
-16 25 -31 24 -33 -8 -7 -41 15 -41 27 0 8 -6 16 -14 19 -8 3 -11 0 -7 -6 3
-6 0 -13 -6 -15 -10 -4 -9 -8 2 -16 8 -6 11 -11 6 -11 -6 0 -23 12 -39 28 -20
18 -31 23 -34 14 -3 -6 -9 -10 -14 -6 -5 3 -9 -2 -9 -11 0 -9 -4 -13 -10 -10
-5 3 -10 1 -10 -4 0 -6 -4 -11 -8 -11 -5 0 -9 7 -9 15 0 8 7 15 15 15 8 0 12
6 9 13 -6 17 45 16 67 -2 9 -8 19 -11 23 -7 4 3 -1 12 -10 19 -15 11 -14 12
10 12 18 0 37 -10 55 -30z m-992 21 c0 -3 -4 -8 -10 -11 -5 -3 -10 -1 -10 4 0
6 5 11 10 11 6 0 10 -2 10 -4z m252 -18 c-3 -13 -12 -30 -21 -38 -13 -13 -14
-13 -7 5 5 11 11 28 13 38 8 26 22 21 15 -5z m253 13 c-3 -6 3 -14 12 -20 10
-5 15 -13 10 -17 -4 -4 -16 3 -27 16 -24 28 -24 30 -4 30 8 0 13 -4 9 -9z m92
3 c-3 -3 -12 -4 -19 -1 -8 3 -5 6 6 6 11 1 17 -2 13 -5z m587 -2 c3 -5 -1 -9
-9 -9 -8 0 -12 4 -9 9 3 4 7 8 9 8 2 0 6 -4 9 -8z m31 -48 l-15 -29 2 27 c1
15 6 24 10 22 11 -7 10 10 -2 24 -5 7 -3 6 5 -1 14 -12 14 -16 0 -43z m-1165
36 c0 -5 -11 -12 -25 -16 -14 -3 -25 -10 -25 -15 0 -5 -5 -9 -12 -9 -9 0 -9 3
-1 11 9 9 47 33 61 38 1 1 2 -3 2 -9z m690 1 c0 -9 -52 -22 -59 -15 -4 3 37
22 52 23 4 1 7 -3 7 -8z m515 -1 c3 -5 1 -10 -4 -10 -6 0 -11 5 -11 10 0 6 2
10 4 10 3 0 8 -4 11 -10z m-1165 -10 c0 -5 -2 -10 -4 -10 -3 0 -8 5 -11 10 -3
6 -1 10 4 10 6 0 11 -4 11 -10z m60 6 c0 -3 -4 -8 -10 -11 -5 -3 -10 -1 -10 4
0 6 5 11 10 11 6 0 10 -2 10 -4z m312 -24 c-7 -2 -12 -10 -12 -18 0 -9 -4 -13
-8 -10 -10 6 -52 -47 -52 -64 0 -5 9 -10 21 -10 15 0 19 5 15 16 -3 8 -2 12 4
9 5 -3 15 5 22 19 6 14 17 26 25 26 7 0 13 8 13 17 0 9 3 14 6 10 10 -10 -7
-47 -22 -47 -8 0 -14 -7 -14 -15 0 -8 -4 -15 -10 -15 -5 0 -10 -4 -10 -10 0
-5 9 -10 20 -10 11 0 20 6 20 14 0 8 7 16 15 20 8 3 15 1 15 -4 0 -6 -4 -10
-10 -10 -5 0 -10 -9 -10 -19 0 -11 -3 -21 -7 -24 -5 -2 -3 -2 4 -1 6 2 14 0
16 -4 2 -4 3 -2 1 4 -1 6 8 17 22 24 29 16 30 25 7 40 -17 10 -16 10 2 8 28
-4 30 -32 4 -57 l-22 -20 24 2 c13 0 27 6 31 12 5 6 8 2 8 -8 0 -10 4 -16 10
-12 6 3 6 15 0 29 -7 20 -6 23 9 19 13 -3 17 -12 13 -31 -4 -22 -2 -25 9 -14
7 6 22 12 34 12 12 0 25 4 30 9 16 15 59 25 51 12 -4 -6 -16 -11 -28 -11 -14
0 -18 -5 -14 -15 3 -8 1 -15 -4 -15 -6 0 -10 -4 -10 -10 0 -16 27 -12 34 5 6
17 36 21 36 5 0 -5 -4 -10 -10 -10 -16 0 -12 -17 6 -24 8 -3 12 -2 9 4 -3 6
-3 10 2 10 4 0 18 3 31 6 16 5 22 2 22 -10 0 -9 7 -16 15 -16 17 0 21 16 5 22
-5 2 -6 9 -1 17 6 10 13 2 26 -27 19 -41 38 -49 28 -12 -8 29 10 24 24 -7 14
-30 2 -56 -23 -46 -8 3 -14 0 -14 -7 0 -13 -70 -5 -80 9 -3 5 -18 11 -35 15
-21 5 -26 4 -15 -3 20 -13 9 -22 -19 -14 -12 3 -18 9 -13 12 6 3 -12 6 -39 6
-61 0 -64 -11 -4 -19 24 -4 47 -12 51 -17 4 -6 21 -8 40 -4 21 3 34 2 34 -5 0
-15 -52 -12 -95 6 -21 8 -44 13 -52 10 -8 -3 -24 1 -36 9 -12 8 -16 15 -9 15
6 0 12 4 12 8 0 4 -17 9 -37 10 -21 2 -39 7 -41 12 -2 6 -8 10 -13 10 -4 0 -6
-6 -3 -14 4 -10 0 -13 -13 -11 -10 3 -35 6 -56 9 -20 2 -45 10 -53 17 -14 12
-16 11 -13 -6 2 -10 15 -22 29 -26 19 -5 20 -7 6 -8 -31 -2 -97 32 -92 46 3 7
2 13 -3 13 -16 0 -19 39 -5 51 8 6 14 22 14 35 0 13 5 24 10 24 6 0 10 5 10
11 0 15 30 43 38 35 3 -4 0 -11 -7 -15 -7 -5 -10 -14 -7 -20 4 -6 0 -11 -8
-11 -15 0 -20 -14 -19 -47 1 -7 -3 -13 -8 -13 -8 0 -5 -30 7 -69 9 -29 13 -3
5 27 -8 27 -6 34 11 46 11 8 18 18 15 23 -3 5 3 16 14 23 10 8 19 18 19 23 0
14 55 63 59 53 2 -6 -1 -12 -7 -14z m153 18 c3 -5 -1 -10 -10 -10 -9 0 -13 5
-10 10 3 6 8 10 10 10 2 0 7 -4 10 -10z m55 -6 c0 -2 -7 -4 -15 -4 -8 0 -15 4
-15 10 0 5 7 7 15 4 8 -4 15 -8 15 -10z m120 0 c0 -8 -4 -12 -10 -9 -5 3 -10
10 -10 16 0 5 5 9 10 9 6 0 10 -7 10 -16z m309 -15 c-6 -12 -13 -18 -16 -15
-3 3 -1 12 5 19 7 8 8 18 4 22 -4 5 -1 5 6 1 9 -5 9 -12 1 -27z m35 16 c-4 -8
-8 -15 -10 -15 -2 0 -4 7 -4 15 0 8 4 15 10 15 5 0 7 -7 4 -15z m163 9 c-3 -3
-12 -4 -19 -1 -8 3 -5 6 6 6 11 1 17 -2 13 -5z m-92 -79 c17 -28 16 -27 -13 5
-17 19 -31 44 -32 55 0 17 2 17 13 -5 7 -14 22 -38 32 -55z m-912 58 c-7 -2
-19 -2 -25 0 -7 3 -2 5 12 5 14 0 19 -2 13 -5z m34 -15 c-3 -8 -6 -5 -6 6 -1
11 2 17 5 13 3 -3 4 -12 1 -19z m429 13 c-4 -5 -1 -12 4 -14 6 -3 5 -4 -2 -3
-15 3 -23 26 -8 26 6 0 9 -4 6 -9z m154 -2 c0 -5 -4 -7 -10 -4 -5 3 -10 -1
-10 -9 0 -9 7 -16 15 -16 8 0 15 4 15 9 0 14 38 1 52 -18 11 -14 11 -14 -4 -3
-10 8 -27 10 -43 6 -25 -6 -25 -7 -9 -25 12 -13 13 -19 4 -19 -6 0 -10 -6 -7
-13 3 -8 -3 -14 -14 -14 -23 -2 -24 1 -2 23 13 13 14 19 5 22 -6 2 -12 10 -12
18 0 8 -4 14 -10 14 -14 0 -12 27 3 33 20 9 27 8 27 -4z m144 -5 c5 -14 4 -15
-9 -4 -17 14 -19 20 -6 20 5 0 12 -7 15 -16z m208 -6 c-7 -7 -12 -8 -12 -2 0
6 3 14 7 17 3 4 9 5 12 2 2 -3 -1 -11 -7 -17z m-1315 -10 c-3 -8 -6 -5 -6 6
-1 11 2 17 5 13 3 -3 4 -12 1 -19z m116 15 c-7 -2 -19 -2 -25 0 -7 3 -2 5 12
5 14 0 19 -2 13 -5z m50 -34 c-6 -6 -9 -1 -7 13 3 33 6 36 11 14 3 -10 1 -22
-4 -27z m515 23 c-10 -2 -18 -9 -18 -15 0 -7 -4 -6 -10 3 -7 11 -5 17 8 21 9
4 22 4 27 0 6 -3 2 -7 -7 -9z m57 0 c-3 -3 -11 0 -18 7 -9 10 -8 11 6 5 10 -3
15 -9 12 -12z m35 8 c0 -5 -4 -10 -10 -10 -5 0 -10 5 -10 10 0 6 5 10 10 10 6
0 10 -4 10 -10z m115 -18 c17 4 26 -1 34 -19 6 -13 7 -23 1 -23 -11 0 -9 -41
3 -57 7 -9 5 -13 -7 -13 -9 0 -15 6 -13 13 1 7 -10 13 -25 15 -28 3 -36 16
-18 27 6 3 10 1 10 -4 0 -6 6 -11 14 -11 10 0 12 7 8 22 -3 14 -2 19 6 14 7
-4 12 -1 12 9 0 13 -6 16 -24 11 -24 -6 -38 9 -35 37 1 7 3 4 6 -6 3 -14 12
-18 28 -15z m-275 3 c0 -8 -2 -15 -4 -15 -2 0 -6 7 -10 15 -3 8 -1 15 4 15 6
0 10 -7 10 -15z m435 5 c3 -6 -1 -7 -9 -4 -18 7 -21 14 -7 14 6 0 13 -4 16
-10z m146 -3 c-6 -8 -8 -17 -4 -20 3 -4 1 -7 -5 -7 -16 0 -15 27 1 33 19 8 20
8 8 -6z m161 -19 c-8 -8 -9 -4 -5 13 4 13 8 18 11 10 2 -7 -1 -18 -6 -23z
m-1601 -1 c-10 -9 -11 -8 -5 6 3 10 9 15 12 12 3 -3 0 -11 -7 -18z m309 16
c-8 -3 -21 -12 -27 -21 -12 -14 -13 -14 -13 0 0 17 14 26 40 26 13 0 13 0 0
-5z m60 -3 c0 -5 -5 -10 -11 -10 -5 0 -7 5 -4 10 3 6 8 10 11 10 2 0 4 -4 4
-10z m186 -16 c-4 -9 -9 -15 -11 -12 -3 3 -3 13 1 22 4 9 9 15 11 12 3 -3 3
-13 -1 -22z m58 11 c3 -8 1 -15 -4 -15 -6 0 -10 7 -10 15 0 8 2 15 4 15 2 0 6
-7 10 -15z m726 -27 c0 -12 -5 -15 -16 -11 -10 4 -12 8 -4 13 6 3 8 15 4 26
-5 16 -4 16 5 4 6 -8 11 -23 11 -32z m-1410 28 c0 -2 -8 -10 -17 -17 -16 -13
-17 -12 -4 4 13 16 21 21 21 13z m175 -6 c-3 -5 -12 -10 -18 -10 -7 0 -6 4 3
10 19 12 23 12 15 0z m60 0 c-3 -5 -11 -10 -16 -10 -6 0 -7 5 -4 10 3 6 11 10
16 10 6 0 7 -4 4 -10z m339 -12 c-8 -27 -12 -33 -19 -27 -7 8 7 49 17 49 5 0
6 -10 2 -22z m414 -3 c21 5 24 4 15 -6 -16 -16 -63 -3 -63 19 1 15 2 15 11 -1
8 -14 18 -17 37 -12z m92 9 c0 -2 -7 -4 -15 -4 -8 0 -15 4 -15 10 0 5 7 7 15
4 8 -4 15 -8 15 -10z m50 6 c-19 -13 -30 -13 -30 0 0 6 10 10 23 10 18 0 19
-2 7 -10z m320 -16 c13 -34 13 -39 -5 -24 -8 7 -12 17 -9 22 4 6 0 14 -7 19
-11 7 -11 9 -1 9 7 0 17 -12 22 -26z m30 5 c0 -6 -4 -7 -10 -4 -5 3 -10 11
-10 16 0 6 5 7 10 4 6 -3 10 -11 10 -16z m129 -2 c12 -15 12 -17 -3 -11 -9 3
-16 13 -16 22 0 8 1 13 3 11 1 -2 9 -12 16 -22z m31 8 c19 -22 8 -25 -12 -3
-10 10 -14 18 -9 18 5 0 14 -7 21 -15z m-1343 -1 c-3 -3 -12 -4 -19 -1 -8 3
-5 6 6 6 11 1 17 -2 13 -5z m108 -4 c-3 -5 -1 -10 4 -10 21 0 11 -25 -14 -37
-14 -6 -25 -7 -25 -2 0 5 10 13 22 18 14 5 17 10 10 15 -15 9 -16 26 -1 26 5
0 7 -4 4 -10z m635 0 c0 -5 -4 -10 -10 -10 -5 0 -10 5 -10 10 0 6 5 10 10 10
6 0 10 -4 10 -10z m-576 -16 c5 -14 4 -15 -9 -4 -17 14 -19 20 -6 20 5 0 12
-7 15 -16z m201 -17 c0 -28 -24 -57 -42 -50 -8 3 -12 0 -9 -8 2 -8 7 -29 10
-47 5 -27 3 -30 -8 -20 -7 7 -11 19 -8 27 3 7 -2 18 -11 23 -10 5 -17 14 -17
19 0 6 5 7 10 4 6 -3 10 -2 10 3 0 5 12 14 26 20 14 7 23 16 19 21 -3 5 -1 12
5 16 6 4 7 12 4 18 -4 7 -3 8 2 4 5 -5 9 -19 9 -30z m505 23 c0 -5 -2 -10 -4
-10 -3 0 -8 5 -11 10 -3 6 -1 10 4 10 6 0 11 -4 11 -10z m190 -6 c0 -2 -11 -4
-25 -4 -14 0 -25 4 -25 9 0 4 11 6 25 3 14 -2 25 -6 25 -8z m368 2 c-2 -1 -10
-7 -19 -14 -13 -10 -19 -9 -30 5 -13 16 -12 17 3 4 15 -11 19 -11 24 3 3 9 10
13 16 10 5 -3 8 -7 6 -8z m-1213 -6 c-3 -5 -12 -10 -18 -10 -7 0 -6 4 3 10 19
12 23 12 15 0z m632 -9 c10 -15 10 -21 0 -25 -9 -3 -9 -7 2 -14 9 -6 10 -12 3
-16 -6 -4 -16 3 -22 14 -7 13 -7 20 0 20 5 0 10 5 10 10 0 6 -7 10 -16 10 -8
0 -12 5 -9 10 9 15 19 12 32 -9z m390 -6 c6 -14 8 -25 4 -25 -4 0 -13 11 -19
25 -6 14 -8 25 -4 25 4 0 12 -11 19 -25z m-927 -4 c-5 -11 -20 -23 -32 -27
-32 -9 -40 -26 -20 -40 9 -7 14 -15 11 -18 -3 -4 -17 4 -31 17 l-26 24 35 14
c19 7 39 21 44 31 5 10 14 18 20 18 6 0 6 -7 -1 -19z m468 12 c-16 -2 -28 -8
-28 -11 0 -4 -12 -8 -27 -10 l-28 -1 25 14 c14 8 39 14 55 13 l30 -1 -27 -4z
m422 -3 c0 -5 -4 -10 -10 -10 -5 0 -10 5 -10 10 0 6 5 10 10 10 6 0 10 -4 10
-10z m-110 -10 c0 -5 -4 -10 -9 -10 -4 0 -8 -8 -7 -19 1 -22 86 -89 105 -83
10 3 10 0 -1 -17 -7 -12 -16 -21 -19 -21 -4 0 -9 -13 -12 -30 -6 -25 -11 -30
-37 -30 -16 0 -30 4 -30 9 0 5 9 7 20 4 14 -4 20 0 20 10 0 8 6 17 13 20 12 4
-36 57 -53 57 -9 0 -23 -35 -24 -60 -1 -18 -46 -27 -46 -10 0 7 7 10 15 6 9
-3 15 0 15 8 0 24 -12 24 -55 0 -50 -28 -63 -30 -41 -9 8 8 17 15 21 15 14 0
37 31 32 44 -10 25 7 27 24 4 10 -12 21 -19 25 -15 4 4 2 13 -4 19 -15 15 -16
62 -2 53 6 -4 8 -11 4 -16 -8 -13 15 -41 28 -33 5 3 4 12 -3 20 -9 11 -8 14 2
14 8 0 1 11 -15 25 -29 25 -53 34 -41 15 3 -5 1 -10 -5 -10 -7 0 -9 7 -6 16 3
9 6 18 6 20 0 2 7 4 16 4 8 0 13 -4 10 -9 -3 -5 1 -12 10 -15 20 -8 24 -8 23
2 -3 18 2 32 11 32 6 0 10 -4 10 -10z m42 -17 c-6 -3 -10 -9 -6 -14 3 -5 0 -9
-7 -9 -8 0 -8 -4 1 -15 20 -24 5 -18 -16 7 -10 12 -13 18 -5 13 11 -6 13 -4 8
8 -4 11 -1 17 9 17 9 0 12 5 8 13 -4 7 -2 7 7 -2 11 -10 11 -15 1 -18z m338
21 c0 -8 -19 -13 -24 -6 -3 5 1 9 9 9 8 0 15 -2 15 -3z m-1322 -11 c-10 -2
-18 -10 -18 -16 0 -7 -9 -18 -21 -25 -17 -11 -19 -11 -13 -1 18 30 39 49 54
48 11 -1 11 -2 -2 -6z m87 0 c-11 -3 -23 -10 -27 -16 -4 -6 -10 -8 -13 -5 -13
13 6 28 33 27 21 -1 23 -2 7 -6z m1095 -41 c0 -7 -5 -10 -10 -7 -6 4 -8 10 -5
15 3 5 1 11 -5 15 -5 3 -10 11 -10 18 0 15 29 -25 30 -41z m191 25 c-10 -9
-11 -8 -5 6 3 10 9 15 12 12 3 -3 0 -11 -7 -18z m-1737 -3 c3 -8 2 -12 -4 -9
-6 3 -10 10 -10 16 0 14 7 11 14 -7z m1387 -12 c-9 -3 -9 -7 0 -18 10 -12 9
-13 -5 -8 -9 3 -16 2 -16 -4 0 -14 34 -25 38 -12 2 6 10 17 18 25 9 8 10 16 4
20 -12 8 -13 25 -1 25 18 0 20 -32 4 -56 -12 -20 -13 -28 -4 -37 10 -9 16 -7
31 11 14 16 28 22 57 20 l38 -1 -38 -4 c-28 -3 -37 -8 -33 -18 3 -10 0 -12
-12 -8 -15 5 -15 3 2 -13 13 -14 20 -15 23 -6 3 6 13 12 23 12 10 0 21 6 23
13 3 7 6 5 6 -5 1 -10 -6 -18 -16 -18 -15 0 -15 -1 0 -18 20 -21 22 -37 5 -26
-7 5 -9 0 -6 -14 4 -14 2 -19 -7 -16 -6 3 -19 -10 -28 -28 -12 -24 -16 -27
-16 -13 1 26 13 57 22 56 4 -1 7 2 6 5 0 4 5 10 13 15 10 6 10 11 1 20 -15 15
-53 -22 -68 -65 -5 -16 -16 -31 -23 -32 -7 -1 -8 0 -2 3 5 2 10 13 10 22 0 10
9 30 21 45 17 22 19 29 9 41 -11 13 -14 13 -25 -2 -7 -10 -11 -21 -9 -25 3 -5
1 -8 -4 -8 -6 0 -13 -11 -16 -25 -5 -21 -26 -36 -26 -19 0 16 33 74 42 74 21
0 -14 29 -43 35 -16 4 -29 11 -29 17 0 19 35 69 39 56 2 -6 -1 -14 -8 -16z
m249 7 c0 -6 -4 -7 -10 -4 -5 3 -10 11 -10 16 0 6 5 7 10 4 6 -3 10 -11 10
-16z m30 0 c0 -6 -4 -7 -10 -4 -5 3 -10 11 -10 16 0 6 5 7 10 4 6 -3 10 -11
10 -16z m43 1 c-3 -11 -7 -20 -9 -20 -2 0 -4 9 -4 20 0 11 4 20 9 20 5 0 7 -9
4 -20z m-1810 -5 c-3 -9 -8 -14 -10 -11 -3 3 -2 9 2 15 9 16 15 13 8 -4z m224
-7 c-3 -8 -6 -5 -6 6 -1 11 2 17 5 13 3 -3 4 -12 1 -19z m67 7 c-4 -8 -8 -15
-10 -15 -2 0 -4 7 -4 15 0 8 4 15 10 15 5 0 7 -7 4 -15z m60 6 c3 -5 -1 -11
-9 -15 -9 -3 -15 0 -15 9 0 16 16 20 24 6z m146 -1 c0 -5 -5 -10 -11 -10 -5 0
-7 5 -4 10 3 6 8 10 11 10 2 0 4 -4 4 -10z m1210 -5 c0 -8 -2 -15 -4 -15 -2 0
-6 7 -10 15 -3 8 -1 15 4 15 6 0 10 -7 10 -15z m-1220 -21 c0 -2 -7 -4 -15 -4
-8 0 -15 4 -15 10 0 5 7 7 15 4 8 -4 15 -8 15 -10z m197 -14 c0 -16 -4 -30 -8
-30 -12 0 -17 38 -6 49 14 14 14 15 14 -19z m1003 5 c0 -14 -4 -25 -9 -25 -4
0 -6 11 -3 25 2 14 6 25 8 25 2 0 4 -11 4 -25z m-1427 -17 c9 -31 2 -33 -11
-3 -6 14 -8 25 -3 25 5 0 11 -10 14 -22z m44 0 c-3 -8 -6 -5 -6 6 -1 11 2 17
5 13 3 -3 4 -12 1 -19z m213 12 c0 -5 -4 -10 -10 -10 -5 0 -10 5 -10 10 0 6 5
10 10 10 6 0 10 -4 10 -10z m805 0 c-3 -5 -11 -10 -16 -10 -6 0 -7 5 -4 10 3
6 11 10 16 10 6 0 7 -4 4 -10z m-1608 -32 c-3 -8 -6 -5 -6 6 -1 11 2 17 5 13
3 -3 4 -12 1 -19z m743 12 c0 -5 -2 -10 -4 -10 -3 0 -8 5 -11 10 -3 6 -1 10 4
10 6 0 11 -4 11 -10z m1310 0 c0 -5 -2 -10 -4 -10 -3 0 -8 5 -11 10 -3 6 -1
10 4 10 6 0 11 -4 11 -10z m30 -6 c0 -8 -5 -12 -10 -9 -6 4 -8 11 -5 16 9 14
15 11 15 -7z m31 -6 c11 -21 11 -22 -4 -9 -10 7 -17 17 -17 22 0 15 9 10 21
-13z m-1914 -10 c-3 -8 -6 -5 -6 6 -1 11 2 17 5 13 3 -3 4 -12 1 -19z m298 12
c3 -6 -1 -7 -9 -4 -18 7 -21 14 -7 14 6 0 13 -4 16 -10z m198 -14 c3 -8 16
-16 29 -19 21 -4 21 -4 2 -6 -11 0 -29 8 -39 19 -10 11 -13 20 -8 20 6 0 13
-6 16 -14z m1312 5 c-3 -5 -1 -12 5 -16 5 -3 10 -11 10 -16 0 -6 -7 -4 -15 5
-17 17 -20 36 -4 36 5 0 8 -4 4 -9z m-1408 -23 c-3 -8 -6 -5 -6 6 -1 11 2 17
5 13 3 -3 4 -12 1 -19z m378 11 c11 -17 -1 -21 -15 -4 -8 9 -8 15 -2 15 6 0
14 -5 17 -11z m999 -4 c3 -8 1 -15 -4 -15 -6 0 -10 7 -10 15 0 8 2 15 4 15 2
0 6 -7 10 -15z m333 -7 c-3 -8 -6 -5 -6 6 -1 11 2 17 5 13 3 -3 4 -12 1 -19z
m-1757 2 c0 -5 -5 -10 -11 -10 -5 0 -7 5 -4 10 3 6 8 10 11 10 2 0 4 -4 4 -10z
m327 4 c-3 -3 -12 -4 -19 -1 -8 3 -5 6 6 6 11 1 17 -2 13 -5z m373 -9 c0 -8
-7 -15 -15 -15 -9 0 -12 6 -9 15 4 8 10 15 15 15 5 0 9 -7 9 -15z m847 9 c-3
-3 -12 -4 -19 -1 -8 3 -5 6 6 6 11 1 17 -2 13 -5z m45 -26 c-8 -8 -9 -4 -5 13
4 13 8 18 11 10 2 -7 -1 -18 -6 -23z m-992 2 c0 -5 -7 -7 -15 -4 -8 4 -12 10
-9 15 6 11 24 2 24 -11z m50 5 c0 -8 -7 -15 -16 -15 -14 0 -14 3 -4 15 7 8 14
15 16 15 2 0 4 -7 4 -15z m861 -14 c6 -14 5 -20 -1 -16 -6 3 -10 12 -10 20 0
7 -5 16 -10 18 -6 3 -5 4 1 3 7 -1 16 -12 20 -25z m-351 9 c0 -5 -4 -10 -9
-10 -6 0 -13 5 -16 10 -3 6 1 10 9 10 9 0 16 -4 16 -10z m544 -6 c3 -8 2 -12
-4 -9 -6 3 -10 10 -10 16 0 14 7 11 14 -7z m-254 -4 c0 -5 -4 -10 -10 -10 -5
0 -10 5 -10 10 0 6 5 10 10 10 6 0 10 -4 10 -10z m-310 -10 c0 -5 -4 -10 -10
-10 -5 0 -10 5 -10 10 0 6 5 10 10 10 6 0 10 -4 10 -10z m318 -57 c16 -30 15
-43 -5 -59 -26 -19 -49 -19 -29 1 8 8 19 15 25 15 14 0 14 1 -4 44 -17 40 -20
42 -41 22 -17 -17 -18 -36 -3 -36 5 0 7 -5 3 -11 -4 -8 -9 -7 -14 2 -6 9 -12
9 -25 -4 -19 -19 -35 -22 -35 -6 0 5 4 8 9 4 5 -3 20 13 32 34 12 22 26 38 31
35 4 -3 8 2 8 12 0 13 4 12 18 -7 9 -13 23 -34 30 -46z m29 45 c-3 -8 -6 -5
-6 6 -1 11 2 17 5 13 3 -3 4 -12 1 -19z m60 0 c-3 -8 -6 -5 -6 6 -1 11 2 17 5
13 3 -3 4 -12 1 -19z m-588 -9 c-22 -13 -31 -11 -17 5 7 8 17 12 22 9 4 -3 2
-9 -5 -14z m563 -16 c-6 -3 -10 -9 -6 -14 3 -5 0 -9 -5 -9 -6 0 -11 4 -11 8 0
12 23 32 29 25 3 -3 0 -8 -7 -10z m152 8 c3 -5 -1 -11 -9 -14 -9 -4 -12 -1 -8
9 6 16 10 17 17 5z m-85 -54 c18 -39 18 -75 0 -46 -4 7 -6 16 -3 20 2 4 -5 24
-16 44 -11 20 -16 34 -10 30 5 -3 19 -25 29 -48z m-102 11 c-3 -7 -5 -2 -5 12
0 14 2 19 5 13 2 -7 2 -19 0 -25z m117 16 c3 -8 2 -12 -4 -9 -6 3 -10 10 -10
16 0 14 7 11 14 -7z m-398 -9 c-11 -8 -29 -14 -40 -14 -19 2 -19 2 2 6 12 2
22 9 22 14 0 5 8 9 18 9 15 -1 15 -2 -2 -15z m221 -7 c-3 -8 -6 -5 -6 6 -1 11
2 17 5 13 3 -3 4 -12 1 -19z m-812 2 c-27 -12 -43 -12 -25 0 8 5 22 9 30 9 10
0 8 -3 -5 -9z m945 -11 c0 -6 -4 -7 -10 -4 -5 3 -10 11 -10 16 0 6 5 7 10 4 6
-3 10 -11 10 -16z m-1000 1 c0 -5 -5 -10 -11 -10 -5 0 -7 5 -4 10 3 6 8 10 11
10 2 0 4 -4 4 -10z m110 0 c0 -5 -4 -10 -10 -10 -5 0 -10 5 -10 10 0 6 5 10
10 10 6 0 10 -4 10 -10z m627 -12 c-3 -8 -6 -5 -6 6 -1 11 2 17 5 13 3 -3 4
-12 1 -19z m230 0 c-3 -8 -6 -5 -6 6 -1 11 2 17 5 13 3 -3 4 -12 1 -19z m-757
2 c0 -5 -4 -10 -9 -10 -6 0 -13 5 -16 10 -3 6 1 10 9 10 9 0 16 -4 16 -10z
m50 -6 c0 -8 -4 -12 -10 -9 -5 3 -10 10 -10 16 0 5 5 9 10 9 6 0 10 -7 10 -16z
m55 6 c3 -5 1 -10 -4 -10 -6 0 -11 5 -11 10 0 6 2 10 4 10 3 0 8 -4 11 -10z
m757 -74 l-9 -31 1 35 c0 19 -3 46 -7 60 -7 22 -6 22 9 -4 12 -22 14 -36 6
-60z m145 78 c-3 -3 -12 -4 -19 -1 -8 3 -5 6 6 6 11 1 17 -2 13 -5z m-274 -36
c-6 -31 -20 -38 -20 -11 0 14 18 45 24 39 1 0 -1 -13 -4 -28z m185 7 c-3 -3
-9 2 -12 12 -6 14 -5 15 5 6 7 -7 10 -15 7 -18z m-288 11 c0 -2 -7 -6 -15 -10
-8 -3 -15 -1 -15 4 0 6 7 10 15 10 8 0 15 -2 15 -4z m160 -21 c-14 -17 -30
-20 -30 -5 0 6 7 10 15 10 8 0 15 5 15 12 0 6 3 8 6 5 4 -4 1 -13 -6 -22z
m-1370 5 c0 -5 -7 -10 -16 -10 -8 0 -12 5 -9 10 3 6 10 10 16 10 5 0 9 -4 9
-10z m330 0 c0 -5 -2 -10 -4 -10 -3 0 -8 5 -11 10 -3 6 -1 10 4 10 6 0 11 -4
11 -10z m210 -24 c0 -2 -7 -7 -16 -10 -8 -3 -12 -2 -9 4 6 10 25 14 25 6z
m977 -28 c-3 -7 -5 -2 -5 12 0 14 2 19 5 13 2 -7 2 -19 0 -25z m-1474 7 c-3
-9 -8 -14 -10 -11 -3 3 -2 9 2 15 9 16 15 13 8 -4z m1438 -16 c-5 -13 -10 -19
-10 -12 -1 15 10 45 15 40 3 -2 0 -15 -5 -28z m93 15 c3 -8 2 -12 -4 -9 -6 3
-10 1 -10 -6 0 -7 -2 -10 -5 -7 -5 5 4 38 10 38 2 0 6 -7 9 -16z m38 -6 c-7
-7 -12 -8 -12 -2 0 6 3 14 7 17 3 4 9 5 12 2 2 -3 -1 -11 -7 -17z m-1376 -20
c-4 -27 -1 -38 19 -56 13 -13 21 -30 18 -38 -7 -19 -23 -18 -23 2 0 16 -28 50
-35 42 -2 -2 -1 -17 3 -34 6 -21 15 -30 34 -32 18 -2 27 -10 31 -28 5 -29 -9
-32 -18 -4 -3 11 -9 19 -13 19 -23 -4 -34 4 -43 31 -6 16 -14 29 -17 29 -22
-3 -32 3 -31 19 0 10 3 12 6 5 2 -7 11 -13 19 -13 8 0 11 6 8 15 -4 8 -12 15
-20 15 -16 0 -18 9 -5 28 6 10 34 23 70 31 2 1 1 -14 -3 -31z m153 8 c-22 -15
-42 -87 -29 -100 14 -14 12 -36 -3 -36 -8 0 -14 12 -15 28 0 15 -5 38 -11 52
l-10 25 -7 -22 c-8 -28 -30 -30 -44 -4 -14 28 -12 58 4 64 11 4 14 -1 13 -20
-1 -14 4 -28 11 -30 6 -3 12 2 12 10 0 7 18 20 40 27 22 7 40 18 40 23 0 6 3
7 7 3 5 -4 1 -13 -8 -20z m181 14 c-8 -5 -19 -10 -25 -10 -5 0 -3 5 5 10 8 5
20 10 25 10 6 0 3 -5 -5 -10z m80 0 c0 -5 -4 -10 -10 -10 -5 0 -10 5 -10 10 0
6 5 10 10 10 6 0 10 -4 10 -10z m-736 -8 c2 -4 -4 -8 -14 -8 -10 0 -16 4 -14
8 3 4 9 8 14 8 5 0 11 -4 14 -8z m39 -12 c-3 -11 -9 -20 -14 -20 -10 0 -12 24
-2 33 13 13 21 7 16 -13z m47 8 c-1 -36 -12 -55 -31 -51 -10 3 -16 9 -13 14 3
5 9 7 14 4 4 -3 10 4 13 15 3 10 0 21 -7 24 -6 2 -3 5 7 5 9 1 17 -5 17 -11z
m147 -5 c-3 -2 -22 -6 -42 -8 -21 -2 -33 1 -29 5 16 15 86 19 71 3z m173 7 c0
-5 -2 -10 -4 -10 -3 0 -8 5 -11 10 -3 6 -1 10 4 10 6 0 11 -4 11 -10z m125 0
c-3 -5 -14 -10 -23 -9 -14 0 -13 2 3 9 27 11 27 11 20 0z m58 -7 c-7 -3 -13
-11 -13 -19 0 -12 5 -12 34 0 31 13 33 13 29 -3 -4 -14 2 -16 34 -13 21 3 41
9 44 14 8 12 49 -12 49 -28 0 -7 -7 -14 -15 -18 -8 -3 -15 0 -15 7 0 21 -47
19 -52 -1 -4 -15 1 -18 33 -19 21 0 44 5 50 13 12 15 34 20 25 6 -2 -4 13 -9
35 -9 34 -2 38 0 25 13 -8 7 -23 14 -33 14 -10 0 -25 5 -33 11 -12 9 -12 10 3
5 10 -3 35 -6 55 -6 25 0 33 -3 23 -9 -23 -14 16 -21 92 -16 37 2 67 0 67 -5
0 -5 -19 -7 -42 -4 -36 5 -40 3 -29 -10 7 -9 16 -14 20 -12 4 3 25 1 46 -4 45
-10 53 -7 35 15 -11 13 -10 14 4 9 10 -4 16 -15 14 -28 -2 -15 3 -22 20 -24
12 -2 22 -8 22 -13 0 -5 6 -9 14 -9 8 0 13 8 12 17 -1 12 7 19 24 20 14 1 18
0 8 -3 -23 -7 -24 -44 -2 -44 10 0 14 6 10 15 -3 8 -1 15 4 15 6 0 10 -8 10
-19 0 -20 -36 -36 -46 -20 -9 15 -19 10 -29 -13 -6 -12 -17 -22 -26 -24 -10
-1 -26 -11 -38 -23 -18 -18 -18 -21 -5 -21 9 0 22 7 28 16 9 11 17 13 36 5 14
-5 18 -10 9 -10 -16 -1 -59 -44 -59 -60 0 -8 -8 -8 -39 -2 -2 1 2 7 8 15 9 11
7 15 -8 19 -27 7 -72 -3 -65 -15 3 -5 19 -6 35 -3 24 5 28 4 23 -9 -3 -9 -14
-16 -24 -16 -31 0 -49 -11 -43 -26 3 -7 -2 -17 -11 -20 -9 -3 -13 -10 -10 -15
3 -5 0 -9 -5 -9 -6 0 -11 4 -11 10 0 5 -20 8 -45 7 -30 -1 -45 -6 -45 -15 0
-10 11 -12 43 -8 23 3 36 3 29 0 -6 -3 -10 -9 -7 -13 2 -4 -9 -7 -25 -6 -23 1
-30 -2 -30 -17 0 -14 -8 -18 -36 -18 -28 0 -35 -3 -32 -17 3 -14 11 -17 41
-15 20 2 37 0 37 -5 0 -4 -20 -7 -45 -6 -24 1 -47 -2 -50 -8 -4 -5 -1 -9 4 -9
6 0 11 -5 11 -11 0 -6 -15 -1 -32 10 -18 11 -45 26 -60 32 -27 11 -38 29 -18
29 6 0 10 -4 10 -10 0 -5 9 -10 20 -10 11 0 20 -4 20 -10 0 -5 11 -10 25 -10
14 0 25 4 25 8 0 10 -61 33 -71 26 -5 -3 -9 0 -9 6 0 6 -8 10 -17 9 -37 -3
-54 1 -47 13 4 6 3 8 -3 5 -13 -8 -27 24 -15 32 5 3 11 14 15 24 3 9 11 17 17
17 14 0 13 -9 -6 -27 -14 -14 -12 -17 18 -31 18 -9 35 -19 38 -23 3 -4 24 -10
46 -13 37 -7 42 -5 47 14 3 13 10 19 16 15 6 -3 9 -11 6 -16 -4 -5 3 -9 14 -9
12 0 21 7 21 15 0 8 -5 14 -11 13 -6 -2 -14 3 -16 10 -3 6 0 12 6 12 6 0 11 7
11 15 0 8 8 16 18 16 9 1 26 3 37 4 11 1 30 2 43 3 14 1 22 8 22 20 0 13 -2
14 -9 3 -10 -15 -21 -2 -17 20 7 34 18 47 37 42 10 -3 19 0 19 6 0 6 -7 11
-15 11 -8 0 -15 9 -15 20 0 11 -5 18 -12 16 -7 -3 -26 -7 -41 -11 -20 -4 -27
-10 -23 -20 3 -10 -1 -15 -14 -15 -13 0 -18 -5 -14 -15 4 -8 10 -12 15 -9 5 3
9 0 9 -6 0 -6 -6 -10 -12 -9 -38 5 -60 -2 -54 -16 3 -9 0 -15 -9 -15 -8 0 -15
4 -15 10 0 5 -7 7 -16 3 -9 -3 -20 0 -25 8 -7 11 -9 11 -9 -3 0 -11 8 -18 19
-18 23 0 45 -25 38 -44 -3 -8 -1 -17 6 -20 7 -2 5 -5 -5 -5 -20 -1 -37 21 -20
27 24 8 11 18 -25 20 -21 2 -39 7 -41 12 -2 6 -8 10 -13 10 -12 0 20 -60 41
-77 9 -8 11 -12 3 -13 -6 0 -18 7 -27 15 -8 8 -22 15 -32 15 -12 0 -14 3 -5
13 13 17 -4 37 -32 37 -10 0 -16 4 -12 9 3 5 -5 13 -17 17 -13 4 -27 12 -31
18 -6 8 -10 8 -14 -1 -7 -18 -33 -16 -33 2 0 15 -7 25 -38 60 -15 17 -8 35 13
35 8 0 11 -7 8 -20 -3 -12 1 -22 11 -26 9 -3 16 -12 16 -20 0 -8 11 -14 26
-14 15 0 32 -7 38 -15 8 -10 15 -12 26 -5 13 8 12 10 -2 10 -10 0 -18 7 -18
15 0 8 5 15 10 15 6 0 10 -4 10 -10 0 -5 18 -10 40 -10 22 0 40 -5 40 -11 0
-6 -9 -8 -20 -4 -15 5 -20 2 -20 -10 0 -11 -5 -15 -15 -11 -8 3 -15 1 -15 -4
0 -12 7 -12 49 -4 18 4 31 13 31 21 0 12 8 14 35 9 31 -6 39 -3 72 29 20 19
33 38 30 42 -4 3 -7 1 -7 -6 0 -8 -7 -10 -20 -6 -16 5 -19 3 -13 -11 4 -12 2
-15 -8 -12 -8 3 -15 12 -17 20 -4 18 28 31 70 30 16 0 28 3 28 7 0 4 23 7 50
7 52 -1 58 -4 38 -24 -9 -9 -9 -12 1 -12 7 0 15 9 18 20 3 11 9 17 14 14 5 -3
9 -1 9 4 0 5 -15 13 -32 17 -23 5 -27 9 -15 12 9 2 17 13 17 24 0 29 -16 23
-34 -13 l-16 -33 0 33 c0 17 4 32 10 32 5 0 7 7 4 15 -4 8 -14 15 -23 15 -14
0 -14 -2 -1 -10 9 -6 11 -10 3 -10 -7 0 -10 -7 -7 -15 6 -14 -14 -20 -63 -18
-7 1 -13 -4 -13 -9 0 -6 16 -7 40 -3 26 4 40 3 40 -4 0 -6 -11 -11 -25 -11
-14 0 -25 -4 -25 -10 0 -5 -5 -10 -11 -10 -5 0 -7 4 -4 10 3 6 -1 7 -9 4 -9
-3 -16 -10 -16 -15 0 -4 -7 -6 -16 -2 -9 3 -19 0 -24 -7 -6 -9 -12 -9 -29 0
-19 10 -23 9 -28 -9 -4 -15 -12 -20 -34 -18 -16 1 -29 5 -29 8 0 4 -7 9 -15
13 -13 4 -14 2 -5 -14 6 -11 14 -20 19 -20 5 0 22 -3 38 -6 25 -5 31 -2 36 16
6 24 27 19 27 -6 0 -8 -4 -12 -10 -9 -5 3 -10 1 -10 -5 0 -7 7 -9 16 -6 11 4
14 1 12 -12 -3 -12 -12 -16 -33 -14 -16 2 -32 8 -36 13 -3 5 -13 7 -22 3 -10
-3 -17 -1 -17 6 0 7 -8 9 -20 5 -15 -5 -20 -2 -20 12 0 29 -20 45 -38 31 -11
-10 -16 -8 -23 5 -6 9 -18 17 -29 17 -10 0 -21 9 -25 19 -3 11 -12 22 -20 25
-26 10 -16 27 13 21 15 -3 21 -2 15 1 -23 10 -14 34 12 34 17 0 25 5 24 18 0
10 -3 12 -6 5 -2 -7 -13 -13 -23 -13 -9 0 -23 -7 -30 -15 -7 -8 -19 -15 -26
-15 -8 0 -14 7 -14 15 0 8 5 15 12 15 9 0 9 3 1 11 -9 9 -8 15 3 26 16 17 50
13 46 -6 -1 -7 2 -10 8 -6 6 3 7 11 4 17 -4 7 -2 8 4 4 7 -4 22 2 34 13 12 12
24 18 27 15 3 -4 0 -9 -6 -11z m-860 -8 c-3 -9 -8 -14 -10 -11 -3 3 -2 9 2 15
9 16 15 13 8 -4z m159 -12 c-3 -16 -7 -22 -10 -15 -4 13 4 42 11 42 2 0 2 -12
-1 -27z m58 17 c-8 -5 -19 -10 -25 -10 -5 0 -3 5 5 10 8 5 20 10 25 10 6 0 3
-5 -5 -10z m750 0 c-8 -5 -22 -9 -30 -9 -10 0 -8 3 5 9 27 12 43 12 25 0z
m-850 -10 c0 -5 -4 -10 -10 -10 -5 0 -10 5 -10 10 0 6 5 10 10 10 6 0 10 -4
10 -10z m283 -10 c-6 -22 -23 -38 -23 -21 0 17 12 41 20 41 5 0 6 -9 3 -20z
m-522 -22 c-3 -21 -6 -26 -9 -15 -3 17 3 47 11 47 2 0 1 -15 -2 -32z m601 20
c1 -7 2 -32 2 -55 1 -33 -1 -39 -11 -31 -9 7 -10 15 -3 23 6 8 6 15 -2 23 -16
16 -35 15 -42 0 -3 -7 -3 -2 0 12 8 31 15 39 21 23 3 -7 12 -13 21 -12 11 0
12 2 5 6 -15 6 -17 23 -3 23 6 0 11 -6 12 -12z m1305 6 c-3 -3 -12 -4 -19 -1
-8 3 -5 6 6 6 11 1 17 -2 13 -5z m-1814 -55 c-6 -6 -7 3 -4 23 4 28 6 29 9 9
2 -13 0 -27 -5 -32z m282 41 c3 -5 1 -10 -4 -10 -6 0 -11 5 -11 10 0 6 2 10 4
10 3 0 8 -4 11 -10z m1682 -12 c-3 -8 -6 -5 -6 6 -1 11 2 17 5 13 3 -3 4 -12
1 -19z m-1710 -10 c-3 -8 -6 -5 -6 6 -1 11 2 17 5 13 3 -3 4 -12 1 -19z m63 1
c0 -5 -4 -9 -10 -9 -5 0 -10 7 -10 16 0 8 5 12 10 9 6 -3 10 -10 10 -16z m897
15 c-3 -3 -12 -4 -19 -1 -8 3 -5 6 6 6 11 1 17 -2 13 -5z m843 -14 c0 -11 -4
-20 -9 -20 -5 0 -7 9 -4 20 3 11 7 20 9 20 2 0 4 -9 4 -20z m-1890 -12 c0 -6
-6 -5 -15 2 -8 7 -15 14 -15 16 0 2 7 1 15 -2 8 -4 15 -11 15 -16z m1840 7 c0
-8 -7 -15 -15 -15 -13 0 -14 3 -3 15 16 18 18 18 18 0z m-1654 -15 c0 -23 -11
-27 -19 -6 -3 8 -1 17 6 20 7 2 12 5 12 5 1 1 1 -8 1 -19z m664 10 c0 -5 -4
-10 -10 -10 -5 0 -10 5 -10 10 0 6 5 10 10 10 6 0 10 -4 10 -10z m394 -6 c3
-8 2 -12 -4 -9 -6 3 -10 10 -10 16 0 14 7 11 14 -7z m-1004 -10 c0 -14 -3 -14
-15 -4 -8 7 -15 14 -15 16 0 2 7 4 15 4 8 0 15 -7 15 -16z m1070 6 c0 -5 -8
-10 -17 -10 -15 0 -16 2 -3 10 19 12 20 12 20 0z m-1176 -25 c3 -8 1 -15 -3
-15 -5 0 -11 7 -15 15 -3 8 -1 15 3 15 5 0 11 -7 15 -15z m404 -17 c8 -31 11
-33 49 -32 30 0 40 -3 36 -13 -4 -10 -9 -11 -19 -2 -8 7 -17 10 -19 7 -8 -8 7
-68 16 -68 5 0 6 -7 3 -15 -4 -9 2 -18 17 -23 15 -6 19 -11 10 -16 -15 -10
-44 1 -37 13 3 5 -1 12 -10 15 -8 3 -13 10 -9 15 3 5 0 13 -6 16 -5 4 -8 14
-5 22 5 12 1 14 -14 10 -11 -3 -20 -1 -20 3 0 5 8 11 18 13 13 4 12 5 -5 6
-27 1 -40 20 -22 32 13 8 6 13 -13 10 -10 -1 -10 23 -1 32 13 14 23 6 31 -25z
m718 5 c-8 -8 -36 5 -36 17 0 7 6 7 21 0 11 -7 18 -14 15 -17z m648 3 c-3 -9
-10 -16 -15 -16 -5 0 -4 9 3 20 14 22 21 20 12 -4z m-2210 -2 c3 -8 2 -12 -4
-9 -6 3 -10 10 -10 16 0 14 7 11 14 -7z m526 6 c0 -5 -5 -10 -11 -10 -5 0 -7
5 -4 10 3 6 8 10 11 10 2 0 4 -4 4 -10z m85 -34 c20 -18 20 -18 -5 -11 -33 9
-54 30 -45 45 5 8 10 8 18 -2 7 -7 21 -21 32 -32z m1636 11 c-10 -9 -11 -8 -5
6 3 10 9 15 12 12 3 -3 0 -11 -7 -18z m-1753 -22 c3 -11 0 -15 -7 -10 -6 3 -9
10 -6 15 3 4 0 11 -5 13 -6 3 -5 4 2 3 7 -1 15 -11 16 -21z m-207 -8 c-10 -9
-11 -8 -5 6 3 10 9 15 12 12 3 -3 0 -11 -7 -18z m159 -15 c0 -7 -4 -10 -10 -7
-5 3 -10 16 -10 28 0 18 2 19 10 7 5 -8 10 -21 10 -28z m114 23 c3 -8 2 -15
-3 -15 -5 0 -14 7 -21 15 -10 12 -10 15 3 15 8 0 17 -7 21 -15z m1122 -16 c1
-32 -9 -28 -21 9 -4 15 -2 22 7 22 8 0 13 -13 14 -31z m39 21 c3 -5 -1 -10 -9
-10 -9 0 -16 5 -16 10 0 6 4 10 9 10 6 0 13 -4 16 -10z m155 0 c0 -5 -5 -10
-11 -10 -5 0 -7 5 -4 10 3 6 8 10 11 10 2 0 4 -4 4 -10z m-1475 -9 c3 -5 2
-12 -3 -15 -5 -3 -9 1 -9 9 0 17 3 19 12 6z m1902 3 c-3 -3 -12 -4 -19 -1 -8
3 -5 6 6 6 11 1 17 -2 13 -5z m43 0 c0 -8 -19 -13 -24 -6 -3 5 1 9 9 9 8 0 15
-2 15 -3z m-1600 -14 c8 -5 11 -10 5 -10 -5 0 -17 5 -25 10 -8 5 -10 10 -5 10
6 0 17 -5 25 -10z m1014 -5 c-4 -8 -7 -15 -9 -15 -2 0 -5 7 -9 15 -3 9 0 15 9
15 9 0 12 -6 9 -15z m-1239 -16 c17 -8 15 -8 -7 -4 -24 5 -28 2 -28 -17 0 -17
-3 -19 -12 -10 -8 8 -8 15 2 27 14 17 17 17 45 4z m161 -22 c8 -4 14 -15 14
-23 0 -9 5 -12 13 -8 6 4 9 4 5 -1 -9 -9 16 -59 44 -87 16 -16 18 -22 7 -29
-17 -11 -35 -5 -32 10 2 6 -7 23 -20 37 -12 14 -20 26 -17 27 3 1 -5 16 -18
34 -12 17 -22 42 -21 55 0 15 3 18 6 8 3 -8 12 -19 19 -23z m1185 3 c5 0 9 -6
9 -14 0 -9 -7 -12 -18 -9 -15 3 -18 11 -13 31 3 19 6 22 9 10 2 -10 8 -18 13
-18z m-1056 -17 c9 -18 22 -33 30 -33 8 0 15 -4 15 -10 0 -5 7 -10 15 -10 8 0
15 -4 15 -10 0 -5 -2 -10 -4 -10 -2 0 -11 -3 -20 -6 -10 -4 -16 -1 -16 7 0 15
-47 41 -52 30 -2 -4 -11 2 -21 12 -18 18 -18 19 2 12 12 -4 21 -2 21 4 0 6 -4
11 -10 11 -5 0 -10 8 -10 18 -1 15 -2 15 -15 -2 -16 -21 -19 -18 -9 7 10 26
43 15 59 -20z m175 22 c0 -8 5 -15 10 -15 6 0 10 -7 10 -15 0 -8 5 -15 12 -15
6 0 9 -2 6 -5 -9 -9 -38 6 -38 20 0 7 -7 15 -15 19 -8 3 -15 10 -15 16 0 5 7
10 15 10 8 0 15 -7 15 -15z m624 0 c4 -10 -1 -15 -14 -15 -20 0 -26 11 -13 23
10 11 20 8 27 -8z m46 5 c0 -5 -4 -10 -10 -10 -5 0 -10 5 -10 10 0 6 5 10 10
10 6 0 10 -4 10 -10z m-1410 -15 c0 -8 -2 -15 -4 -15 -2 0 -6 7 -10 15 -3 8
-1 15 4 15 6 0 10 -7 10 -15z m180 -11 c0 -8 -4 -14 -10 -14 -5 0 -10 9 -10
21 0 11 5 17 10 14 6 -3 10 -13 10 -21z m1320 17 c0 -6 -4 -13 -10 -16 -5 -3
-10 -18 -10 -32 0 -15 -3 -24 -6 -20 -9 9 5 77 16 77 6 0 10 -4 10 -9z m45 -1
c3 -5 1 -10 -4 -10 -6 0 -11 5 -11 10 0 6 2 10 4 10 3 0 8 -4 11 -10z m-1742
-20 c3 -11 1 -18 -4 -14 -5 3 -9 12 -9 20 0 20 7 17 13 -6z m801 5 c3 -8 1
-15 -4 -15 -6 0 -10 7 -10 15 0 8 2 15 4 15 2 0 6 -7 10 -15z m197 2 c-1 -12
-15 -9 -19 4 -3 6 1 10 8 8 6 -3 11 -8 11 -12z m907 -23 c15 -33 8 -30 -18 6
-14 20 -16 28 -7 24 8 -3 19 -16 25 -30z m399 14 c-3 -8 -6 -5 -6 6 -1 11 2
17 5 13 3 -3 4 -12 1 -19z m-662 2 c-3 -5 -16 -10 -28 -9 -20 1 -20 2 3 9 14
4 26 8 28 9 2 1 0 -3 -3 -9z m304 -40 c0 -9 -6 -4 -14 10 -19 33 -19 49 0 24
8 -10 14 -26 14 -34z m-1532 34 c-3 -3 -12 -4 -19 -1 -8 3 -5 6 6 6 11 1 17
-2 13 -5z m133 -22 c0 -8 -1 -13 -3 -11 -1 2 -9 12 -16 22 -12 15 -12 17 3 11
9 -3 16 -13 16 -22z m50 13 c0 -8 -2 -15 -4 -15 -2 0 -6 7 -10 15 -3 8 -1 15
4 15 6 0 10 -7 10 -15z m714 3 c-3 -4 -15 -8 -27 -8 -15 0 -18 3 -9 8 17 11
43 11 36 0z m256 -13 c0 -8 -9 -15 -19 -15 -11 0 -22 -6 -24 -12 -3 -8 -6 -6
-6 5 -1 11 6 17 19 17 11 0 20 5 20 10 0 6 2 10 5 10 3 0 5 -7 5 -15z m157
-10 c-15 -16 -22 -11 -13 10 3 9 10 13 16 10 6 -4 5 -11 -3 -20z m73 9 c0 -8
-5 -12 -10 -9 -6 4 -17 1 -25 -5 -8 -7 -15 -8 -15 -3 0 8 29 27 48 32 1 1 2
-6 2 -15z m-1553 -16 c-3 -8 -6 -5 -6 6 -1 11 2 17 5 13 3 -3 4 -12 1 -19z
m1603 1 c0 -5 -4 -9 -10 -9 -5 0 -10 7 -10 16 0 8 5 12 10 9 6 -3 10 -10 10
-16z m-1317 -25 c-7 -18 -16 -10 -18 16 -1 15 1 17 11 9 7 -6 10 -17 7 -25z
m752 26 c3 -5 -1 -10 -10 -10 -9 0 -13 5 -10 10 3 6 8 10 10 10 2 0 7 -4 10
-10z m597 -26 c-6 -11 -11 -13 -16 -5 -4 6 -2 11 3 11 6 0 11 8 12 18 0 9 3
12 5 5 3 -7 1 -20 -4 -29z m106 0 c-4 -3 -12 5 -18 18 -12 22 -12 22 6 6 10
-10 15 -20 12 -24z m-1623 16 c-3 -5 -12 -10 -18 -10 -7 0 -6 4 3 10 19 12 23
12 15 0z m255 -4 c0 -8 -4 -17 -9 -20 -10 -7 -23 19 -14 28 11 11 23 6 23 -8z
m972 -16 c-12 -11 -30 -20 -40 -20 -18 0 -70 -49 -84 -80 -6 -13 -7 -13 -7 0
-1 25 51 77 97 97 23 10 42 22 42 27 0 5 3 6 7 3 3 -4 -3 -16 -15 -27z m-1385
-2 c-3 -8 -6 -5 -6 6 -1 11 2 17 5 13 3 -3 4 -12 1 -19z m377 -4 c9 -35 2 -40
-23 -15 -25 25 -27 35 -5 27 8 -3 12 -2 9 4 -3 6 -2 10 3 10 6 0 13 -12 16
-26z m-414 -4 c0 -11 -4 -20 -9 -20 -5 0 -7 9 -4 20 3 11 7 20 9 20 2 0 4 -9
4 -20z m620 16 c0 -11 -19 -15 -25 -6 -3 5 1 10 9 10 9 0 16 -2 16 -4z m702
-5 c-8 -4 -14 -12 -14 -17 0 -5 -10 -23 -22 -41 -17 -24 -25 -29 -38 -22 -12
7 -24 3 -44 -16 -36 -34 -50 -32 -25 3 16 23 27 28 56 27 37 -1 51 7 40 24 -3
6 -17 6 -36 -1 -21 -7 -34 -7 -41 0 -13 13 52 34 67 21 16 -16 35 -10 35 11 0
12 7 20 18 20 13 0 14 -2 4 -9z m262 -3 c-3 -4 -12 -8 -20 -8 -8 0 -14 4 -14
8 0 4 9 8 19 8 11 0 17 -4 15 -8z m71 -9 c11 -3 20 -12 21 -22 1 -10 0 -12 -3
-3 -5 18 -56 28 -65 13 -5 -8 -8 -6 -8 5 0 17 21 30 30 18 3 -4 14 -9 25 -11z
m135 11 c0 -5 -2 -10 -4 -10 -3 0 -8 5 -11 10 -3 6 -1 10 4 10 6 0 11 -4 11
-10z m62 -22 c-8 -8 -9 -4 -5 13 4 13 8 18 11 10 2 -7 -1 -18 -6 -23z m-1682
-30 c10 -9 22 -14 26 -10 5 4 2 -2 -6 -12 -13 -18 -13 -19 0 -14 11 4 16 -1
17 -15 1 -11 6 -23 11 -26 5 -3 11 -14 15 -24 4 -10 12 -15 17 -12 6 4 10 3 9
-2 -3 -13 20 -63 29 -63 11 0 36 -51 33 -67 -1 -7 6 -13 15 -13 10 0 14 -3 11
-7 -4 -3 0 -15 10 -25 9 -10 11 -18 5 -18 -6 0 -14 5 -17 10 -4 6 -10 8 -15 5
-7 -4 -19 21 -24 48 0 4 -8 12 -16 17 -13 9 -13 11 0 20 11 7 11 10 2 10 -7 0
-25 11 -40 25 -22 21 -24 25 -9 25 15 0 13 5 -11 28 -16 15 -33 36 -36 48 -3
11 -21 28 -39 38 -17 9 -24 14 -14 12 20 -6 24 12 3 20 -8 3 -11 14 -8 32 5
22 7 24 10 7 2 -11 12 -28 22 -37z m524 31 c-3 -5 2 -12 10 -15 9 -3 16 -14
16 -23 -1 -14 -2 -14 -13 -1 -17 21 -57 42 -57 31 0 -5 8 -12 18 -15 10 -3 19
-17 20 -30 2 -27 -12 -43 -23 -26 -3 5 -1 10 4 10 18 0 13 18 -11 40 -22 21
-22 22 -5 35 20 14 51 10 41 -6z m104 12 c7 -1 10 -6 7 -11 -4 -6 -15 -8 -26
-5 -21 7 -25 -5 -7 -23 6 -6 9 -15 5 -18 -9 -10 -38 16 -31 28 3 5 -2 15 -12
23 -17 12 -15 13 16 10 19 -2 41 -4 48 -4z m309 -5 c0 -8 -7 -14 -16 -14 -9 0
-24 -3 -33 -7 -13 -5 -18 -3 -18 8 0 9 11 17 28 20 15 2 30 5 33 6 3 0 6 -5 6
-13z m385 -19 c-5 -20 -6 -20 -13 -1 -11 29 -10 34 5 28 8 -3 12 -13 8 -27z
m249 6 c-8 -15 -10 -15 -11 -2 0 17 10 32 18 25 2 -3 -1 -13 -7 -23z m151 2
c-2 -14 -6 -25 -8 -25 -2 0 -4 11 -4 25 0 14 4 25 9 25 4 0 6 -11 3 -25z
m-1644 -10 c-3 -3 -9 2 -12 12 -6 14 -5 15 5 6 7 -7 10 -15 7 -18z m1202 4
c-7 -11 -14 -19 -16 -16 -7 7 7 37 17 37 6 0 5 -9 -1 -21z m90 17 c0 -3 -4 -8
-10 -11 -5 -3 -10 -1 -10 4 0 6 5 11 10 11 6 0 10 -2 10 -4z m-1583 -28 c-3
-8 -6 -5 -6 6 -1 11 2 17 5 13 3 -3 4 -12 1 -19z m383 1 c0 -14 -17 -10 -23 5
-4 10 -1 13 9 9 7 -3 14 -9 14 -14z m129 4 c6 -10 11 -13 11 -6 0 7 7 10 15 7
12 -5 13 -9 4 -20 -10 -12 -14 -12 -30 2 -10 9 -23 13 -28 9 -12 -7 -15 8 -4
18 11 11 21 8 32 -10z m1352 -10 c-8 -15 -10 -15 -11 -2 0 17 10 32 18 25 2
-3 -1 -13 -7 -23z m-1954 -30 c-3 -10 -5 -2 -5 17 0 19 2 27 5 18 2 -10 2 -26
0 -35z m187 32 c3 -8 1 -15 -4 -15 -6 0 -10 7 -10 15 0 8 2 15 4 15 2 0 6 -7
10 -15z m972 -12 c-10 -10 -19 5 -10 18 6 11 8 11 12 0 2 -7 1 -15 -2 -18z
m564 23 c0 -3 -4 -8 -10 -11 -5 -3 -10 -1 -10 4 0 6 5 11 10 11 6 0 10 -2 10
-4z m373 -25 c-6 -3 -14 -16 -18 -29 -4 -13 -9 -21 -11 -19 -3 3 2 22 12 43
10 24 18 34 21 25 3 -7 1 -16 -4 -20z m-1676 -3 c-3 -8 -6 -5 -6 6 -1 11 2 17
5 13 3 -3 4 -12 1 -19z m527 7 c-4 -8 -10 -15 -15 -15 -5 0 -9 7 -9 15 0 8 7
15 15 15 9 0 12 -6 9 -15z m-174 -5 c0 -5 -2 -10 -4 -10 -3 0 -8 5 -11 10 -3
6 -1 10 4 10 6 0 11 -4 11 -10z m310 -5 c0 -8 -4 -15 -10 -15 -5 0 -10 7 -10
15 0 8 5 15 10 15 6 0 10 -7 10 -15z m436 -5 c0 -20 -40 -40 -53 -26 -4 3 3 6
15 6 15 0 22 6 22 20 0 11 4 20 8 20 4 0 8 -9 8 -20z m259 10 c-3 -5 -10 -10
-16 -10 -5 0 -9 5 -9 10 0 6 7 10 16 10 8 0 12 -4 9 -10z m-1715 -21 c0 -6 -4
-7 -10 -4 -5 3 -10 11 -10 16 0 6 5 7 10 4 6 -3 10 -11 10 -16z m1537 -1 c-3
-8 -6 -5 -6 6 -1 11 2 17 5 13 3 -3 4 -12 1 -19z m557 6 c3 -8 2 -12 -4 -9 -6
3 -10 10 -10 16 0 14 7 11 14 -7z m-1442 -18 c9 -12 17 -27 18 -33 0 -7 3 -13
8 -13 9 0 36 -59 29 -66 -2 -3 -12 2 -20 11 -9 8 -23 15 -31 15 -18 0 -21 16
-5 25 7 5 5 13 -5 24 -9 10 -13 21 -9 26 5 4 0 5 -9 2 -13 -4 -15 -2 -11 10 4
11 2 14 -5 9 -7 -4 -19 -3 -28 2 -11 6 -7 9 17 9 22 0 40 -8 51 -21z m974 -5
c-1 -17 -5 -26 -9 -21 -5 4 -6 17 -2 29 9 29 12 26 11 -8z m131 7 c-3 -8 -6
-5 -6 6 -1 11 2 17 5 13 3 -3 4 -12 1 -19z m310 0 c-3 -8 -6 -5 -6 6 -1 11 2
17 5 13 3 -3 4 -12 1 -19z m-1255 -10 c2 -13 9 -22 16 -20 6 1 12 -2 12 -8 0
-16 -28 -12 -50 7 -25 22 -26 43 -1 43 13 0 21 -8 23 -22z m50 -1 c-2 -9 5
-20 15 -24 10 -4 35 -24 57 -45 21 -21 42 -38 47 -38 5 0 9 -4 9 -10 0 -17
-25 -11 -38 10 -14 24 -32 26 -32 5 0 -8 7 -15 15 -15 8 0 15 -4 15 -9 0 -5
-9 -7 -19 -4 -21 5 -36 43 -18 43 7 0 5 5 -3 10 -8 5 -12 10 -9 10 4 0 -14 21
-38 46 -40 40 -43 45 -22 42 16 -2 23 -9 21 -21z m818 19 c0 -2 -7 -7 -16 -10
-8 -3 -12 -2 -9 4 6 10 25 14 25 6z m231 -19 c-10 -9 -11 -8 -5 6 3 10 9 15
12 12 3 -3 0 -11 -7 -18z m-1721 -11 c0 -2 -9 -2 -20 1 -11 3 -20 9 -20 15 0
5 9 4 20 -2 11 -6 20 -12 20 -14z m360 14 c0 -5 -2 -10 -4 -10 -3 0 -8 5 -11
10 -3 6 -1 10 4 10 6 0 11 -4 11 -10z m500 -11 c0 -6 -4 -7 -10 -4 -5 3 -10
11 -10 16 0 6 5 7 10 4 6 -3 10 -11 10 -16z m433 1 c-8 -30 -21 -34 -15 -5 2
14 8 25 12 25 5 0 6 -9 3 -20z m360 0 c-3 -12 -8 -19 -11 -16 -5 6 5 36 12 36
2 0 2 -9 -1 -20z m127 16 c0 -2 -7 -7 -16 -10 -8 -3 -12 -2 -9 4 6 10 25 14
25 6z m71 -23 c-8 -15 -10 -15 -11 -2 0 17 10 32 18 25 2 -3 -1 -13 -7 -23z
m-1541 2 c0 -8 -2 -15 -4 -15 -2 0 -6 7 -10 15 -3 8 -1 15 4 15 6 0 10 -7 10
-15z m1606 -11 c-4 -9 -9 -15 -11 -12 -3 3 -3 13 1 22 4 9 9 15 11 12 3 -3 3
-13 -1 -22z m-2066 12 c0 -2 -7 -7 -16 -10 -8 -3 -12 -2 -9 4 6 10 25 14 25 6z
m375 -6 c3 -5 1 -10 -4 -10 -6 0 -11 5 -11 10 0 6 2 10 4 10 3 0 8 -4 11 -10z
m168 -10 c3 -12 14 -20 26 -20 12 0 21 -6 21 -14 0 -20 -40 -16 -41 4 0 11 -3
9 -8 -4 -7 -18 -8 -18 -14 -3 -3 9 -2 17 4 17 6 0 6 7 -1 20 -6 11 -7 20 -2
20 6 0 12 -9 15 -20z m717 5 c0 -10 -9 -15 -27 -14 -24 2 -25 2 -5 6 12 2 22
9 22 14 0 5 2 9 5 9 3 0 5 -7 5 -15z m100 -1 c0 -8 -4 -12 -10 -9 -5 3 -10 10
-10 16 0 5 5 9 10 9 6 0 10 -7 10 -16z m125 -14 c0 -16 -3 -30 -7 -30 -10 0
-10 44 -1 53 3 4 7 7 7 7 1 0 1 -13 1 -30z m-745 -2 c0 -6 -6 -5 -15 2 -8 7
-15 14 -15 16 0 2 7 1 15 -2 8 -4 15 -11 15 -16z m393 -6 c-6 -25 -18 -29 -27
-7 -3 9 0 15 9 15 8 0 15 5 15 12 0 6 2 9 5 7 2 -3 2 -15 -2 -27z m44 22 c-3
-3 -12 -4 -19 -1 -8 3 -5 6 6 6 11 1 17 -2 13 -5z m133 -14 c0 -12 -7 -20 -16
-20 -13 0 -14 3 -5 13 6 8 8 17 4 20 -3 4 -1 7 5 7 7 0 12 -9 12 -20z m-1217
3 c-7 -2 -19 -2 -25 0 -7 3 -2 5 12 5 14 0 19 -2 13 -5z m332 -3 c3 -5 1 -10
-4 -10 -6 0 -11 5 -11 10 0 6 2 10 4 10 3 0 8 -4 11 -10z m70 0 c3 -5 2 -10
-4 -10 -5 0 -13 5 -16 10 -3 6 -2 10 4 10 5 0 13 -4 16 -10z m896 -12 c-4 -12
-13 -23 -20 -24 -6 -1 -7 0 -1 3 5 2 10 13 10 24 0 10 4 19 10 19 5 0 6 -9 1
-22z m629 -15 c-11 -17 -11 -17 -6 0 3 10 6 24 7 30 0 9 2 9 5 0 3 -7 0 -20
-6 -30z m77 15 c-3 -8 -6 -5 -6 6 -1 11 2 17 5 13 3 -3 4 -12 1 -19z m-1897
-49 c0 -9 10 -23 23 -32 18 -12 20 -18 9 -28 -10 -11 -14 -10 -18 9 -4 12 -10
22 -15 22 -5 0 -9 9 -9 21 0 11 -4 17 -10 14 -5 -3 -10 0 -10 9 0 8 -3 23 -6
33 -4 13 0 11 15 -7 11 -14 21 -32 21 -41z m989 35 c-6 -8 -21 -13 -33 -13
-17 1 -17 2 -3 6 9 2 17 11 17 18 0 9 6 12 15 9 12 -5 13 -10 4 -20z m473 -6
c-8 -8 -9 -4 -5 13 4 13 8 18 11 10 2 -7 -1 -18 -6 -23z m48 22 c0 -5 -4 -10
-10 -10 -5 0 -10 5 -10 10 0 6 5 10 10 10 6 0 10 -4 10 -10z m111 -30 c6 0 7
-5 3 -11 -9 -15 -24 9 -22 36 1 17 1 17 5 -2 2 -13 9 -23 14 -23z m26 18 c-3
-8 -6 -5 -6 6 -1 11 2 17 5 13 3 -3 4 -12 1 -19z m40 0 c-3 -8 -6 -5 -6 6 -1
11 2 17 5 13 3 -3 4 -12 1 -19z m-2170 -10 c-3 -8 -6 -5 -6 6 -1 11 2 17 5 13
3 -3 4 -12 1 -19z m658 12 c3 -5 1 -10 -4 -10 -6 0 -11 5 -11 10 0 6 2 10 4
10 3 0 8 -4 11 -10z m965 -15 c-6 -7 -7 -21 -4 -31 6 -15 4 -17 -6 -7 -8 7
-10 19 -5 30 5 10 7 22 6 26 -1 5 3 6 9 2 8 -5 8 -11 0 -20z m100 13 c-8 -7
-21 -19 -27 -27 -11 -13 -13 -13 -13 1 0 8 10 20 23 26 30 14 34 14 17 0z m90
3 c0 -6 -4 -13 -10 -16 -5 -3 -10 1 -10 9 0 9 5 16 10 16 6 0 10 -4 10 -9z
m35 -1 c3 -5 1 -10 -4 -10 -6 0 -11 5 -11 10 0 6 2 10 4 10 3 0 8 -4 11 -10z
m-785 -20 c13 -11 26 -20 29 -20 3 0 12 -9 19 -20 20 -32 0 -23 -47 20 -43 40
-44 57 -1 20z m57 13 c-4 -3 -2 -12 5 -20 8 -11 7 -12 -6 -7 -9 3 -16 9 -16
13 0 9 11 21 18 21 3 0 2 -3 -1 -7z m786 0 c-7 -2 -13 -12 -13 -20 0 -9 -3
-14 -6 -10 -10 10 4 37 18 36 10 0 10 -2 1 -6z m298 -20 c-12 -20 -14 -14 -5
12 4 9 9 14 11 11 3 -2 0 -13 -6 -23z m51 18 c8 11 9 11 6 1 -4 -16 -22 -18
-24 -2 -2 7 -1 6 3 -1 4 -8 8 -7 15 2z m-735 -17 c-16 -8 -36 -13 -45 -11 -12
3 -11 5 6 6 12 0 22 6 22 11 0 6 10 10 23 10 21 -1 20 -2 -6 -16z m988 6 c3
-5 1 -10 -4 -10 -6 0 -11 5 -11 10 0 6 2 10 4 10 3 0 8 -4 11 -10z m-1705 -10
c8 -5 11 -10 5 -10 -5 0 -17 5 -25 10 -8 5 -10 10 -5 10 6 0 17 -5 25 -10z
m-635 -10 c3 -5 1 -10 -4 -10 -6 0 -11 5 -11 10 0 6 2 10 4 10 3 0 8 -4 11
-10z m685 0 c0 -5 -7 -7 -15 -4 -8 4 -15 8 -15 10 0 2 7 4 15 4 8 0 15 -4 15
-10z m47 4 c-3 -3 -12 -4 -19 -1 -8 3 -5 6 6 6 11 1 17 -2 13 -5z m658 -21
c-11 -7 -28 -12 -39 -12 -19 2 -18 2 2 6 13 3 26 11 29 19 3 8 10 11 16 7 6
-4 3 -11 -8 -20z m245 23 c0 -2 -8 -10 -17 -17 -16 -13 -17 -12 -4 4 13 16 21
21 21 13z m180 0 c0 -3 -4 -8 -10 -11 -5 -3 -10 -1 -10 4 0 6 5 11 10 11 6 0
10 -2 10 -4z m-587 -13 c-7 -2 -13 -11 -13 -18 0 -7 6 -16 13 -18 7 -3 5 -6
-5 -6 -10 -1 -18 -8 -18 -16 0 -8 -4 -15 -10 -15 -13 0 -13 17 1 26 6 3 9 15
6 25 -5 17 6 27 28 27 6 0 4 -2 -2 -5z m267 -3 c0 -5 -4 -10 -10 -10 -5 0 -10
5 -10 10 0 6 5 10 10 10 6 0 10 -4 10 -10z m80 0 c0 -5 -4 -10 -10 -10 -5 0
-10 5 -10 10 0 6 5 10 10 10 6 0 10 -4 10 -10z m127 -12 c-3 -8 -6 -5 -6 6 -1
11 2 17 5 13 3 -3 4 -12 1 -19z m490 -10 c-3 -7 -5 -2 -5 12 0 14 2 19 5 13 2
-7 2 -19 0 -25z m-1384 0 c4 -12 1 -17 -6 -14 -7 3 -20 9 -29 12 -25 9 -22 19
6 20 16 1 26 -5 29 -18z m377 13 c0 -5 -9 -7 -20 -4 -11 3 -20 7 -20 9 0 2 9
4 20 4 11 0 20 -4 20 -9z m110 -1 c0 -5 -8 -10 -17 -10 -15 0 -16 2 -3 10 19
12 20 12 20 0z m247 4 c-3 -3 -12 -4 -19 -1 -8 3 -5 6 6 6 11 1 17 -2 13 -5z
m208 -16 c-4 -13 -13 -38 -21 -56 -8 -18 -12 -36 -9 -41 3 -5 0 -13 -6 -17 -9
-5 -10 4 -4 32 4 21 10 43 13 49 4 5 7 12 8 15 2 13 17 40 21 40 2 0 1 -10 -2
-22z m105 18 c0 -3 -4 -8 -10 -11 -5 -3 -10 -1 -10 4 0 6 5 11 10 11 6 0 10
-2 10 -4z m-2163 -28 c-3 -8 -6 -5 -6 6 -1 11 2 17 5 13 3 -3 4 -12 1 -19z
m963 1 c0 -6 -4 -7 -10 -4 -5 3 -10 11 -10 16 0 6 5 7 10 4 6 -3 10 -11 10
-16z m60 -10 c0 -4 -7 -6 -15 -3 -8 4 -15 10 -15 15 0 4 7 6 15 3 8 -4 15 -10
15 -15z m276 -9 c8 0 14 -5 14 -10 0 -7 -6 -7 -20 0 -11 6 -19 18 -19 28 1 16
2 16 6 0 2 -10 11 -18 19 -18z m104 10 c-11 -11 -28 -19 -37 -19 -17 1 -17 2
0 6 9 2 17 11 17 19 0 8 9 14 20 14 l20 0 -20 -20z m341 3 c-25 -17 -75 -27
-66 -13 3 5 12 7 20 4 8 -4 18 1 21 10 3 9 16 16 27 16 21 0 21 0 -2 -17z
m-491 -31 c0 -1 -9 2 -20 8 -11 6 -20 15 -20 20 0 6 9 2 20 -7 11 -10 20 -19
20 -21z m315 28 c-3 -6 4 -10 17 -11 22 0 22 -1 3 -9 -22 -9 -41 3 -31 19 4 6
9 11 12 11 3 0 2 -4 -1 -10z m62 4 c-3 -3 -12 -4 -19 -1 -8 3 -5 6 6 6 11 1
17 -2 13 -5z m367 -28 c-3 -14 -11 -26 -16 -26 -5 0 -7 6 -4 13 3 6 9 20 12
30 10 27 16 13 8 -17z m85 -18 c-7 -23 -16 -47 -21 -53 -5 -5 -2 13 7 40 8 28
15 54 15 59 0 5 3 7 6 4 3 -3 0 -26 -7 -50z m-1179 32 c0 -5 -2 -10 -4 -10 -3
0 -8 5 -11 10 -3 6 -1 10 4 10 6 0 11 -4 11 -10z m440 -5 c0 -8 -2 -15 -4 -15
-2 0 -6 7 -10 15 -3 8 -1 15 4 15 6 0 10 -7 10 -15z m106 -5 c0 -11 -6 -20
-13 -20 -7 0 -13 -4 -13 -10 0 -5 -4 -10 -10 -10 -5 0 -10 7 -10 15 0 8 7 15
15 15 8 0 15 7 15 15 0 8 4 15 8 15 4 0 8 -9 8 -20z m394 16 c0 -3 -4 -8 -10
-11 -5 -3 -10 -1 -10 4 0 6 5 11 10 11 6 0 10 -2 10 -4z m341 -28 c-3 -21 -6
-26 -9 -15 -3 17 3 47 11 47 2 0 1 -15 -2 -32z m40 0 c-3 -21 -6 -26 -9 -15
-3 17 3 47 11 47 2 0 1 -15 -2 -32z m75 7 c-14 -14 -16 -14 -16 -2 0 9 6 17
13 20 19 7 21 -1 3 -18z m-1316 5 c0 -5 6 -10 14 -10 8 0 16 -7 20 -15 8 -23
-8 -18 -34 10 -13 14 -18 25 -12 25 7 0 12 -4 12 -10z m80 0 c0 -5 -7 -7 -15
-4 -8 4 -15 8 -15 10 0 2 7 4 15 4 8 0 15 -4 15 -10z m69 0 c-8 -6 -8 -9 0
-14 6 -4 11 -15 10 -24 0 -13 -3 -12 -11 4 -5 12 -20 26 -31 31 -19 9 -17 10
11 10 18 0 28 -4 21 -7z m535 -16 c9 -23 8 -23 -18 -11 -16 8 -21 14 -13 19
18 11 24 10 31 -8z m256 6 c0 -5 -7 -10 -16 -10 -8 0 -12 5 -9 10 3 6 10 10
16 10 5 0 9 -4 9 -10z m667 -12 c-3 -8 -6 -5 -6 6 -1 11 2 17 5 13 3 -3 4 -12
1 -19z m-1902 2 c3 -5 -1 -10 -9 -10 -9 0 -16 5 -16 10 0 6 4 10 9 10 6 0 13
-4 16 -10z m685 -14 c14 -18 13 -19 -15 -12 -16 4 -34 11 -39 16 -5 5 0 6 13
3 13 -3 21 -1 21 8 0 7 1 10 3 8 1 -2 9 -13 17 -23z m177 18 c-3 -3 -12 -4
-19 -1 -8 3 -5 6 6 6 11 1 17 -2 13 -5z m205 -19 c-2 -14 -6 -25 -8 -25 -2 0
-4 11 -4 25 0 14 4 25 9 25 4 0 6 -11 3 -25z m-1525 -7 c-3 -8 -6 -5 -6 6 -1
11 2 17 5 13 3 -3 4 -12 1 -19z m71 10 c14 -14 16 -28 2 -28 -5 0 -14 9 -20
20 -12 22 -1 27 18 8z m970 -6 c-10 -2 -18 -8 -18 -13 0 -6 -5 -7 -11 -4 -6 5
-4 12 8 20 10 7 22 10 28 7 5 -4 2 -8 -7 -10z m212 2 c0 -8 -5 -12 -10 -9 -6
4 -8 11 -5 16 9 14 15 11 15 -7z m235 6 c3 -5 -1 -10 -10 -10 -9 0 -13 5 -10
10 3 6 8 10 10 10 2 0 7 -4 10 -10z m101 -5 c-8 -8 -17 -15 -20 -15 -3 0 -6 7
-6 15 0 9 9 15 21 15 18 0 19 -2 5 -15z m46 -3 c5 -17 -19 -42 -39 -42 -5 0 0
5 10 11 12 7 16 17 12 30 -4 10 -2 19 3 19 5 0 12 -8 14 -18z m395 -14 c-3 -7
-5 -2 -5 12 0 14 2 19 5 13 2 -7 2 -19 0 -25z m-1337 0 c0 -6 -6 -5 -15 2 -8
7 -15 14 -15 16 0 2 7 1 15 -2 8 -4 15 -11 15 -16z m185 12 c3 -5 -1 -10 -9
-10 -8 0 -18 5 -21 10 -3 6 1 10 9 10 8 0 18 -4 21 -10z m505 0 c0 -5 -12 -10
-27 -9 l-28 1 25 8 c14 4 26 8 28 9 1 1 2 -3 2 -9z m-906 -15 c3 -9 0 -15 -9
-15 -8 0 -15 7 -15 15 0 8 4 15 9 15 5 0 11 -7 15 -15z m1453 -7 c-3 -8 -6 -5
-6 6 -1 11 2 17 5 13 3 -3 4 -12 1 -19z m390 -10 c-3 -7 -5 -2 -5 12 0 14 2
19 5 13 2 -7 2 -19 0 -25z m-1373 7 c3 -8 1 -15 -4 -15 -6 0 -10 7 -10 15 0 8
2 15 4 15 2 0 6 -7 10 -15z m283 0 c0 -8 -4 -15 -9 -15 -4 0 -8 7 -8 15 0 8 4
15 8 15 5 0 9 -7 9 -15z m198 5 c3 -5 1 -10 -4 -10 -6 0 -11 5 -11 10 0 6 2
10 4 10 3 0 8 -4 11 -10z m255 6 c0 -2 -7 -6 -15 -10 -8 -3 -15 -1 -15 4 0 6
7 10 15 10 8 0 15 -2 15 -4z m30 -6 c0 -5 -5 -10 -11 -10 -5 0 -7 5 -4 10 3 6
8 10 11 10 2 0 4 -4 4 -10z m-805 -10 c3 -6 -1 -7 -9 -4 -18 7 -21 14 -7 14 6
0 13 -4 16 -10z m245 -27 c0 -8 -8 -5 -20 7 -11 11 -20 22 -20 25 0 3 9 0 20
-7 11 -7 20 -18 20 -25z m360 15 c0 -6 -7 -7 -16 -4 -9 3 -25 6 -37 6 -16 0
-18 3 -9 9 17 10 62 2 62 -11z m380 18 c0 -2 -7 -7 -16 -10 -8 -3 -12 -2 -9 4
6 10 25 14 25 6z m90 0 c0 -3 -4 -8 -10 -11 -5 -3 -10 -1 -10 4 0 6 5 11 10
11 6 0 10 -2 10 -4z m220 0 c0 -3 -4 -8 -10 -11 -5 -3 -10 -1 -10 4 0 6 5 11
10 11 6 0 10 -2 10 -4z m-2104 -32 c-3 -8 1 -14 8 -14 8 0 17 -11 20 -25 4
-14 11 -23 16 -20 6 3 10 -3 10 -14 0 -10 4 -21 9 -23 5 -1 11 -10 13 -18 2
-8 9 -21 16 -28 17 -19 7 -28 -13 -12 -9 7 -14 19 -11 26 3 7 -1 15 -9 18 -8
3 -22 20 -31 37 -9 18 -23 39 -30 47 -16 16 -19 56 -3 47 6 -4 8 -13 5 -21z
m681 20 c-3 -3 -12 -4 -19 -1 -8 3 -5 6 6 6 11 1 17 -2 13 -5z m268 -12 c-3
-3 -11 0 -18 7 -9 10 -8 11 6 5 10 -3 15 -9 12 -12z m49 10 c2 -4 -4 -9 -15
-9 -11 -1 -17 2 -14 8 7 11 22 12 29 1z m186 -2 c0 -5 -10 -10 -22 -9 -22 0
-22 1 -3 9 11 5 21 9 23 9 1 1 2 -3 2 -9z m45 0 c-3 -5 -12 -10 -18 -10 -7 0
-6 4 3 10 19 12 23 12 15 0z m50 0 c-3 -5 -12 -10 -18 -10 -7 0 -6 4 3 10 19
12 23 12 15 0z m645 6 c0 -3 -4 -8 -10 -11 -5 -3 -10 -1 -10 4 0 6 5 11 10 11
6 0 10 -2 10 -4z m-1525 -17 c11 -17 -1 -21 -15 -4 -8 9 -8 15 -2 15 6 0 14
-5 17 -11z m1575 1 c0 -5 -4 -10 -10 -10 -5 0 -10 5 -10 10 0 6 5 10 10 10 6
0 10 -4 10 -10z m-1335 -10 c3 -6 -1 -7 -9 -4 -18 7 -21 14 -7 14 6 0 13 -4
16 -10z m233 -15 c-3 -3 -9 2 -12 12 -6 14 -5 15 5 6 7 -7 10 -15 7 -18z m605
18 c-7 -2 -21 -2 -30 0 -10 3 -4 5 12 5 17 0 24 -2 18 -5z m167 -13 c-6 -11
-12 -20 -14 -20 -2 0 -2 9 1 20 3 11 9 20 15 20 5 0 4 -9 -2 -20z m206 -6 c-4
-9 -9 -15 -11 -12 -3 3 -3 13 1 22 4 9 9 15 11 12 3 -3 3 -13 -1 -22z m191 4
c-3 -8 -6 -5 -6 6 -1 11 2 17 5 13 3 -3 4 -12 1 -19z m-1537 -4 c0 -8 -4 -12
-10 -9 -5 3 -10 10 -10 16 0 5 5 9 10 9 6 0 10 -7 10 -16z m703 2 c3 -8 0 -17
-7 -19 -10 -4 -12 1 -9 14 6 23 9 24 16 5z m162 -15 c-6 -5 -25 10 -25 20 0 5
6 4 14 -3 8 -7 12 -15 11 -17z m405 25 c0 -3 -4 -8 -10 -11 -5 -3 -10 -1 -10
4 0 6 5 11 10 11 6 0 10 -2 10 -4z m35 -6 c3 -5 1 -10 -4 -10 -6 0 -11 5 -11
10 0 6 2 10 4 10 3 0 8 -4 11 -10z m-1005 -10 c0 -5 -7 -7 -15 -4 -8 4 -15 8
-15 10 0 2 7 4 15 4 8 0 15 -4 15 -10z m310 0 c0 -5 -5 -10 -11 -10 -6 0 -9
-7 -5 -15 3 -8 1 -15 -4 -15 -11 0 -14 33 -3 43 10 10 23 8 23 -3z m194 -5
c-10 -8 -23 -14 -29 -14 -5 0 -1 6 9 14 11 8 24 15 30 15 5 0 1 -7 -10 -15z
m693 -32 c-3 -10 -5 -2 -5 17 0 19 2 27 5 18 2 -10 2 -26 0 -35z m-1587 22 c0
-8 -2 -15 -4 -15 -2 0 -6 7 -10 15 -3 8 -1 15 4 15 6 0 10 -7 10 -15z m190 5
c0 -5 -2 -10 -4 -10 -3 0 -8 5 -11 10 -3 6 -1 10 4 10 6 0 11 -4 11 -10z m380
1 c0 -5 -9 -7 -20 -4 -11 3 -20 7 -20 9 0 2 9 4 20 4 11 0 20 -4 20 -9z m70 4
c0 -7 -30 -13 -34 -7 -3 4 4 9 15 9 10 1 19 0 19 -2z m110 1 c0 -9 -30 -14
-35 -6 -4 6 3 10 14 10 12 0 21 -2 21 -4z m247 -2 c-3 -3 -12 -4 -19 -1 -8 3
-5 6 6 6 11 1 17 -2 13 -5z m186 -9 c-3 -9 -8 -14 -10 -11 -3 3 -2 9 2 15 9
16 15 13 8 -4z m84 -7 c-3 -8 -6 -5 -6 6 -1 11 2 17 5 13 3 -3 4 -12 1 -19z
m-2000 -10 c-3 -8 -6 -5 -6 6 -1 11 2 17 5 13 3 -3 4 -12 1 -19z m1869 7 c-23
-18 -36 -19 -36 -4 0 5 4 8 8 5 4 -2 14 -1 22 5 23 14 27 10 6 -6z m330 -11
c-4 -9 -9 -15 -11 -12 -3 3 -3 13 1 22 4 9 9 15 11 12 3 -3 3 -13 -1 -22z
m255 3 c-10 -9 -11 -8 -5 6 3 10 9 15 12 12 3 -3 0 -11 -7 -18z m46 1 c-3 -8
-6 -5 -6 6 -1 11 2 17 5 13 3 -3 4 -12 1 -19z m-1657 2 c-19 -13 -30 -13 -30
0 0 6 10 10 23 10 18 0 19 -2 7 -10z m825 0 c-3 -5 -12 -10 -18 -10 -7 0 -6 4
3 10 19 12 23 12 15 0z m122 4 c-3 -3 -12 -4 -19 -1 -8 3 -5 6 6 6 11 1 17 -2
13 -5z m328 -4 c-3 -5 -12 -10 -18 -10 -7 0 -6 4 3 10 19 12 23 12 15 0z
m-655 -10 c0 -5 -5 -10 -11 -10 -5 0 -7 5 -4 10 3 6 8 10 11 10 2 0 4 -4 4
-10z m120 -6 c0 -2 -9 -4 -21 -4 -11 0 -18 4 -14 10 5 8 35 3 35 -6z m573 -6
c-6 -22 -33 -69 -33 -56 0 9 30 78 34 78 2 0 2 -10 -1 -22z m237 12 c0 -5 -5
-10 -11 -10 -5 0 -7 5 -4 10 3 6 8 10 11 10 2 0 4 -4 4 -10z m-1528 -22 c-11
-11 -32 -3 -32 12 0 4 9 6 21 3 13 -4 17 -9 11 -15z m465 16 c-3 -3 -12 -4
-19 -1 -8 3 -5 6 6 6 11 1 17 -2 13 -5z m193 -4 c0 -5 -4 -10 -10 -10 -5 0
-10 5 -10 10 0 6 5 10 10 10 6 0 10 -4 10 -10z m205 0 c3 -5 1 -10 -4 -10 -6
0 -11 5 -11 10 0 6 2 10 4 10 3 0 8 -4 11 -10z m-348 -22 c-3 -8 -6 -5 -6 6
-1 11 2 17 5 13 3 -3 4 -12 1 -19z m634 -5 c-12 -20 -14 -14 -5 12 4 9 9 14
11 11 3 -2 0 -13 -6 -23z m-831 7 c0 -5 -2 -10 -4 -10 -3 0 -8 5 -11 10 -3 6
-1 10 4 10 6 0 11 -4 11 -10z m880 0 c0 -5 -5 -10 -11 -10 -5 0 -7 5 -4 10 3
6 8 10 11 10 2 0 4 -4 4 -10z m-270 -10 c0 -5 -4 -10 -10 -10 -5 0 -10 5 -10
10 0 6 5 10 10 10 6 0 10 -4 10 -10z m165 0 c3 -5 1 -10 -4 -10 -6 0 -11 5
-11 10 0 6 2 10 4 10 3 0 8 -4 11 -10z m-1072 -36 c-4 -12 -8 -12 -18 3 -16
22 -8 38 10 23 8 -6 11 -18 8 -26z m574 30 c-3 -3 -12 -4 -19 -1 -8 3 -5 6 6
6 11 1 17 -2 13 -5z m-1167 -14 c0 -5 -2 -10 -4 -10 -3 0 -8 5 -11 10 -3 6 -1
10 4 10 6 0 11 -4 11 -10z m815 0 c3 -5 2 -10 -4 -10 -5 0 -13 5 -16 10 -3 6
-2 10 4 10 5 0 13 -4 16 -10z m445 0 c0 -5 -4 -10 -10 -10 -5 0 -10 5 -10 10
0 6 5 10 10 10 6 0 10 -4 10 -10z m180 5 c0 -2 -13 -8 -29 -13 -22 -8 -29 -8
-25 1 3 10 54 21 54 12z m-86 -14 c3 -4 -6 -6 -19 -3 -14 2 -25 6 -25 8 0 8
39 4 44 -5z m346 -15 c-14 -13 -27 -21 -30 -19 -5 5 38 43 48 43 4 0 -5 -11
-18 -24z m-830 4 c8 -5 11 -10 5 -10 -5 0 -17 5 -25 10 -8 5 -10 10 -5 10 6 0
17 -5 25 -10z m1055 0 c3 -5 1 -10 -4 -10 -6 0 -11 5 -11 10 0 6 2 10 4 10 3
0 8 -4 11 -10z m-782 -7 c-7 -2 -21 -2 -30 0 -10 3 -4 5 12 5 17 0 24 -2 18
-5z m90 -7 c4 -10 1 -13 -8 -9 -8 3 -12 9 -9 14 7 12 11 11 17 -5z m647 10 c0
-2 -8 -10 -17 -17 -16 -13 -17 -12 -4 4 13 16 21 21 21 13z m-583 -12 c-3 -3
-12 -4 -19 -1 -8 3 -5 6 6 6 11 1 17 -2 13 -5z m148 -4 c3 -5 -1 -10 -9 -10
-9 0 -16 5 -16 10 0 6 4 10 9 10 6 0 13 -4 16 -10z m65 6 c0 -3 -4 -8 -10 -11
-5 -3 -10 -1 -10 4 0 6 5 11 10 11 6 0 10 -2 10 -4z m-882 -26 c10 -17 10 -20
-4 -20 -8 0 -13 4 -9 9 3 6 -3 14 -12 20 -14 8 -15 10 -3 11 8 0 21 -9 28 -20z
m987 11 c3 -5 1 -12 -5 -16 -5 -3 -10 1 -10 9 0 18 6 21 15 7z m-1461 -40 c-6
-6 -24 19 -24 34 1 6 7 1 15 -9 8 -11 12 -22 9 -25z m1046 23 c0 -2 -11 -4
-25 -4 -14 0 -25 4 -25 9 0 4 11 6 25 3 14 -2 25 -6 25 -8z m70 6 c0 -5 -4
-10 -10 -10 -5 0 -10 5 -10 10 0 6 5 10 10 10 6 0 10 -4 10 -10z m-150 -4 c0
-9 -39 -13 -51 -5 -10 6 -4 9 19 9 17 0 32 -2 32 -4z m884 -11 c-4 -8 -11 -15
-16 -15 -6 0 -5 6 2 15 7 8 14 15 16 15 2 0 1 -7 -2 -15z m154 -10 c-6 -14
-13 -23 -15 -21 -5 5 15 46 22 46 3 0 -1 -11 -7 -25z m-438 11 c0 -2 -7 -7
-16 -10 -8 -3 -12 -2 -9 4 6 10 25 14 25 6z m227 -18 c-3 -8 -6 -5 -6 6 -1 11
2 17 5 13 3 -3 4 -12 1 -19z m-1897 2 c0 -5 -2 -10 -4 -10 -3 0 -8 5 -11 10
-3 6 -1 10 4 10 6 0 11 -4 11 -10z m1385 0 c-3 -5 -14 -10 -23 -9 -14 0 -13 2
3 9 27 11 27 11 20 0z m-670 -18 c-3 -3 -11 0 -18 7 -9 10 -8 11 6 5 10 -3 15
-9 12 -12z m472 12 c-3 -3 -12 -4 -19 -1 -8 3 -5 6 6 6 11 1 17 -2 13 -5z
m330 0 c-3 -3 -12 -4 -19 -1 -8 3 -5 6 6 6 11 1 17 -2 13 -5z m83 -4 c0 -5
-10 -10 -22 -9 -22 0 -22 1 -3 9 11 5 21 9 23 9 1 1 2 -3 2 -9z m135 -14 c-16
-13 -32 -22 -34 -20 -5 5 42 43 54 44 6 0 -3 -11 -20 -24z m-1621 -1 c-4 -8
-7 -15 -9 -15 -2 0 -5 7 -9 15 -3 9 0 15 9 15 9 0 12 -6 9 -15z m976 0 c-7 -8
-20 -14 -29 -14 -13 1 -13 2 2 6 9 2 17 9 17 14 0 5 5 9 11 9 8 0 8 -5 -1 -15z
m-475 -5 c3 -6 -4 -10 -17 -10 -18 0 -20 2 -8 10 19 12 18 12 25 0z m535 -6
c0 -8 -4 -12 -10 -9 -5 3 -10 10 -10 16 0 5 5 9 10 9 6 0 10 -7 10 -16z m70 6
c0 -5 -4 -10 -10 -10 -5 0 -10 5 -10 10 0 6 5 10 10 10 6 0 10 -4 10 -10z
m445 -8 c-3 -3 -11 0 -18 7 -9 10 -8 11 6 5 10 -3 15 -9 12 -12z m-2020 -2 c3
-6 -1 -7 -9 -4 -18 7 -21 14 -7 14 6 0 13 -4 16 -10z m1767 -17 c-3 -16 -7
-22 -10 -15 -4 13 4 42 11 42 2 0 2 -12 -1 -27z m55 21 c-3 -3 -12 -4 -19 -1
-8 3 -5 6 6 6 11 1 17 -2 13 -5z m373 -8 c0 -2 -7 -6 -15 -10 -8 -3 -15 -1
-15 4 0 6 7 10 15 10 8 0 15 -2 15 -4z m40 -6 c0 -5 -2 -10 -4 -10 -3 0 -8 5
-11 10 -3 6 -1 10 4 10 6 0 11 -4 11 -10z m167 -12 c-3 -8 -6 -5 -6 6 -1 11 2
17 5 13 3 -3 4 -12 1 -19z m-542 2 c3 -5 1 -10 -4 -10 -6 0 -11 5 -11 10 0 6
2 10 4 10 3 0 8 -4 11 -10z m-1825 -40 c0 -13 -1 -13 -10 0 -5 8 -10 22 -10
30 0 13 1 13 10 0 5 -8 10 -22 10 -30z m1443 33 c-7 -2 -19 -2 -25 0 -7 3 -2
5 12 5 14 0 19 -2 13 -5z m171 -24 c-9 -10 -22 -15 -28 -11 -7 4 -5 8 7 10 9
2 17 10 17 18 0 8 5 12 11 9 7 -5 4 -13 -7 -26z m361 21 c-3 -5 -12 -10 -18
-10 -7 0 -6 4 3 10 19 12 23 12 15 0z m-200 -10 c-3 -5 -12 -10 -18 -10 -7 0
-6 4 3 10 19 12 23 12 15 0z m-365 -20 c11 -11 15 -20 9 -20 -11 0 -39 24 -39
34 0 11 10 6 30 -14z m642 -2 c-7 -7 -12 -8 -12 -2 0 6 3 14 7 17 3 4 9 5 12
2 2 -3 -1 -11 -7 -17z m-1338 -4 c5 -13 3 -14 -6 -7 -7 6 -20 13 -28 16 -10 4
-8 6 6 6 12 1 25 -6 28 -15z m40 1 c-4 -8 -11 -15 -16 -15 -6 0 -5 6 2 15 7 8
14 15 16 15 2 0 1 -7 -2 -15z m46 5 c0 -5 -4 -10 -10 -10 -5 0 -10 5 -10 10 0
6 5 10 10 10 6 0 10 -4 10 -10z m53 -6 c-2 -7 -11 -10 -19 -7 -17 6 -11 20 10
20 8 0 12 -6 9 -13z m137 6 c0 -5 -4 -10 -9 -10 -6 0 -13 5 -16 10 -3 6 1 10
9 10 9 0 16 -4 16 -10z m38 -8 c2 -7 -2 -10 -12 -6 -9 3 -16 11 -16 16 0 13
23 5 28 -10z m62 -6 c0 -8 3 -7 8 1 10 15 260 13 252 -2 -3 -5 -26 -10 -52 -9
-27 0 -48 -4 -48 -10 0 -6 -5 -5 -12 2 -7 7 -34 12 -61 12 -40 0 -48 -3 -43
-15 3 -8 1 -15 -3 -15 -5 0 -11 5 -13 12 -3 7 -21 12 -41 12 -33 0 -47 13 -31
28 9 9 44 -3 44 -16z m408 -1 c-3 -3 -9 2 -12 12 -6 14 -5 15 5 6 7 -7 10 -15
7 -18z m-1133 5 c3 -5 1 -10 -4 -10 -6 0 -11 5 -11 10 0 6 2 10 4 10 3 0 8 -4
11 -10z m1295 -20 c0 -5 -10 -10 -22 -9 -22 0 -22 1 -3 9 11 5 21 9 23 9 1 1
2 -3 2 -9z m-823 -6 c-3 -3 -12 -4 -19 -1 -8 3 -5 6 6 6 11 1 17 -2 13 -5z
m1217 -3 c3 -4 -6 -6 -19 -3 -14 2 -25 6 -25 8 0 8 39 4 44 -5z m-384 -35 c0
-2 -7 -7 -16 -10 -8 -3 -12 -2 -9 4 6 10 25 14 25 6z m272 -28 c-7 -7 -12 -8
-12 -2 0 6 3 14 7 17 3 4 9 5 12 2 2 -3 -1 -11 -7 -17z m-672 2 c0 -5 -4 -10
-9 -10 -6 0 -13 5 -16 10 -3 6 1 10 9 10 9 0 16 -4 16 -10z m30 6 c0 -3 -4 -8
-10 -11 -5 -3 -10 -1 -10 4 0 6 5 11 10 11 6 0 10 -2 10 -4z m179 -10 c-11 -9
-69 -14 -69 -6 0 6 17 10 37 10 20 0 34 -2 32 -4z m221 -6 c0 -5 -5 -10 -11
-10 -5 0 -7 5 -4 10 3 6 8 10 11 10 2 0 4 -4 4 -10z m90 0 c0 -5 -5 -10 -11
-10 -5 0 -7 5 -4 10 3 6 8 10 11 10 2 0 4 -4 4 -10z m237 4 c-3 -3 -12 -4 -19
-1 -8 3 -5 6 6 6 11 1 17 -2 13 -5z m-374 -19 c-3 -9 -8 -14 -10 -11 -3 3 -2
9 2 15 9 16 15 13 8 -4z m94 -31 c-3 -3 -12 -4 -19 -1 -8 3 -5 6 6 6 11 1 17
-2 13 -5z m151 -8 c-7 -8 -17 -12 -22 -9 -4 3 -2 9 5 14 22 13 31 11 17 -5z
m-1078 -26 c6 -11 8 -20 5 -20 -14 0 -45 21 -45 30 0 18 29 10 40 -10z m348 8
c22 -11 31 -38 12 -38 -5 0 -10 7 -10 15 0 8 -9 15 -20 15 -11 0 -20 -6 -20
-12 0 -9 -4 -8 -10 2 -5 8 -10 18 -10 21 0 10 34 8 58 -3z m299 6 c-3 -3 -12
-4 -19 -1 -8 3 -5 6 6 6 11 1 17 -2 13 -5z m-1123 -41 c3 -7 3 -13 1 -13 -7 0
-45 39 -45 45 0 9 40 -19 44 -32z m1566 18 c0 -5 -8 -15 -17 -22 -16 -12 -17
-12 -6 2 7 9 10 19 6 22 -3 4 -1 7 5 7 7 0 12 -4 12 -9z m267 -7 c-3 -3 -12
-4 -19 -1 -8 3 -5 6 6 6 11 1 17 -2 13 -5z m-610 -10 c-3 -3 -12 -4 -19 -1 -8
3 -5 6 6 6 11 1 17 -2 13 -5z m38 -12 c-3 -3 -11 0 -18 7 -9 10 -8 11 6 5 10
-3 15 -9 12 -12z m200 -2 c-3 -5 -18 -9 -33 -9 l-27 1 30 8 c17 4 31 8 33 9 2
0 0 -3 -3 -9z m155 6 c0 -2 -7 -7 -16 -10 -8 -3 -12 -2 -9 4 6 10 25 14 25 6z
m-245 -16 c-3 -5 -12 -10 -18 -10 -7 0 -6 4 3 10 19 12 23 12 15 0z m345 0 c0
-5 -10 -15 -22 -21 l-23 -12 20 21 c23 24 25 25 25 12z m-723 -6 c-3 -3 -12
-4 -19 -1 -8 3 -5 6 6 6 11 1 17 -2 13 -5z m413 -34 c0 -5 -5 -10 -11 -10 -5
0 -7 5 -4 10 3 6 8 10 11 10 2 0 4 -4 4 -10z m440 0 c0 -5 -4 -10 -10 -10 -5
0 -10 5 -10 10 0 6 5 10 10 10 6 0 10 -4 10 -10z m185 0 c-3 -5 -12 -10 -18
-10 -7 0 -6 4 3 10 19 12 23 12 15 0z m-601 -16 c3 -8 2 -12 -4 -9 -6 3 -10
10 -10 16 0 14 7 11 14 -7z m516 12 c0 -2 -7 -7 -16 -10 -8 -3 -12 -2 -9 4 6
10 25 14 25 6z m177 -28 c-3 -8 -6 -5 -6 6 -1 11 2 17 5 13 3 -3 4 -12 1 -19z
m-642 2 c3 -5 1 -10 -4 -10 -6 0 -11 5 -11 10 0 6 2 10 4 10 3 0 8 -4 11 -10z
m332 -12 c-3 -8 -6 -5 -6 6 -1 11 2 17 5 13 3 -3 4 -12 1 -19z m-662 -9 c-10
-15 -25 -10 -19 6 4 8 10 12 15 9 5 -3 7 -10 4 -15z m188 -4 c-3 -9 -8 -14
-10 -11 -3 3 -2 9 2 15 9 16 15 13 8 -4z m74 -1 c-3 -3 -12 -4 -19 -1 -8 3 -5
6 6 6 11 1 17 -2 13 -5z m113 -9 c0 -8 -4 -15 -10 -15 -5 0 -7 7 -4 15 4 8 8
15 10 15 2 0 4 -7 4 -15z m73 8 c-7 -2 -21 -2 -30 0 -10 3 -4 5 12 5 17 0 24
-2 18 -5z m-1315 -28 c-3 -3 -9 2 -12 12 -6 14 -5 15 5 6 7 -7 10 -15 7 -18z
m877 -4 c3 -6 -3 -9 -14 -8 -11 0 -17 5 -15 9 7 11 22 10 29 -1z m856 -14
c-10 -9 -11 -8 -5 6 3 10 9 15 12 12 3 -3 0 -11 -7 -18z m-2166 -35 c-7 -7
-25 9 -37 31 -10 20 -9 20 15 -3 14 -14 24 -26 22 -28z m1145 44 c0 -3 -4 -8
-10 -11 -5 -3 -10 -1 -10 4 0 6 5 11 10 11 6 0 10 -2 10 -4z m560 -11 c-7 -8
-17 -12 -23 -8 -6 4 -3 9 9 14 27 11 28 11 14 -6z m185 -4 c-3 -6 -11 -11 -16
-11 -5 0 -4 6 3 14 14 16 24 13 13 -3z m85 9 c13 -9 13 -10 0 -9 -8 0 -24 4
-35 9 l-20 9 20 0 c11 0 27 -4 35 -9z m-2350 -10 c0 -5 -2 -10 -4 -10 -3 0 -8
5 -11 10 -3 6 -1 10 4 10 6 0 11 -4 11 -10z m850 -12 c0 -5 -9 -4 -20 2 -11 6
-20 12 -20 14 0 2 9 2 20 -1 11 -3 20 -9 20 -15z m343 15 c-7 -2 -21 -2 -30 0
-10 3 -4 5 12 5 17 0 24 -2 18 -5z m1017 -9 c0 -2 -7 -4 -15 -4 -8 0 -15 4
-15 10 0 5 7 7 15 4 8 -4 15 -8 15 -10z m-407 -1 c-7 -2 -19 -2 -25 0 -7 3 -2
5 12 5 14 0 19 -2 13 -5z m54 1 c-3 -3 -12 -4 -19 -1 -8 3 -5 6 6 6 11 1 17
-2 13 -5z m-317 -14 c12 -8 11 -10 -7 -10 -13 0 -23 5 -23 10 0 13 11 13 30 0z
m-983 -22 c-3 -8 -6 -5 -6 6 -1 11 2 17 5 13 3 -3 4 -12 1 -19z m328 12 c4 -6
-7 -10 -27 -10 -25 0 -29 3 -18 10 19 13 37 13 45 0z m345 0 c0 -5 -7 -10 -15
-10 -8 0 -15 5 -15 10 0 6 7 10 15 10 8 0 15 -4 15 -10z m-160 -10 c0 -5 -4
-10 -10 -10 -5 0 -10 5 -10 10 0 6 5 10 10 10 6 0 10 -4 10 -10z m60 0 c0 -5
-4 -10 -9 -10 -6 0 -13 5 -16 10 -3 6 1 10 9 10 9 0 16 -4 16 -10z m303 -18
c5 -24 4 -25 -8 -9 -7 10 -22 18 -32 17 -10 -1 -27 -1 -38 0 -18 1 -18 2 -3 8
10 4 31 8 47 9 24 2 30 -2 34 -25z m47 18 c0 -5 -7 -10 -15 -10 -8 0 -15 5
-15 10 0 6 7 10 15 10 8 0 15 -4 15 -10z m110 0 c0 -5 -5 -10 -11 -10 -5 0 -7
5 -4 10 3 6 8 10 11 10 2 0 4 -4 4 -10z m445 0 c3 -6 -1 -7 -9 -4 -18 7 -21
14 -7 14 6 0 13 -4 16 -10z m68 3 c-7 -2 -19 -2 -25 0 -7 3 -2 5 12 5 14 0 19
-2 13 -5z m-1463 -12 c0 -5 -9 -7 -20 -4 -11 3 -20 7 -20 9 0 2 9 4 20 4 11 0
20 -4 20 -9z m326 -18 c-6 -6 -36 9 -36 18 0 5 9 4 20 -3 10 -7 18 -14 16 -15z
m317 20 c-7 -2 -19 -2 -25 0 -7 3 -2 5 12 5 14 0 19 -2 13 -5z m511 -1 c2 -4
-12 -6 -32 -4 -56 5 -62 10 -15 11 23 1 44 -3 47 -7z m-1727 -24 c-3 -8 -6 -5
-6 6 -1 11 2 17 5 13 3 -3 4 -12 1 -19z m1588 12 c-3 -5 -15 -10 -25 -10 -10
0 -22 5 -25 10 -4 6 7 10 25 10 18 0 29 -4 25 -10z m50 0 c8 -13 -5 -13 -25 0
-13 8 -13 10 2 10 9 0 20 -4 23 -10z m-385 -9 c0 -5 -9 -7 -20 -4 -11 3 -20 7
-20 9 0 2 9 4 20 4 11 0 20 -4 20 -9z m181 -8 c13 -16 12 -17 -3 -4 -17 13
-22 21 -14 21 2 0 10 -8 17 -17z m-636 -13 c3 -5 1 -10 -4 -10 -6 0 -11 5 -11
10 0 6 2 10 4 10 3 0 8 -4 11 -10z m1375 0 c-8 -5 -24 -9 -35 -9 -16 1 -16 2
5 9 35 11 48 11 30 0z m-513 -26 c-3 -3 -12 -4 -19 -1 -8 3 -5 6 6 6 11 1 17
-2 13 -5z m150 -10 c-3 -3 -12 -4 -19 -1 -8 3 -5 6 6 6 11 1 17 -2 13 -5z
m-80 -10 c-3 -3 -12 -4 -19 -1 -8 3 -5 6 6 6 11 1 17 -2 13 -5z m-210 -50 c-3
-3 -12 -4 -19 -1 -8 3 -5 6 6 6 11 1 17 -2 13 -5z m1080 -96 c-3 -8 -6 -5 -6
6 -1 11 2 17 5 13 3 -3 4 -12 1 -19z m43 -12 c0 -2 -7 -9 -15 -16 -13 -11 -14
-10 -9 4 5 14 24 23 24 12z m-160 -16 c0 -5 -2 -10 -4 -10 -3 0 -8 5 -11 10
-3 6 -1 10 4 10 6 0 11 -4 11 -10z m73 -5 c-3 -9 -8 -14 -10 -11 -3 3 -2 9 2
15 9 16 15 13 8 -4z m-153 -25 c0 -15 -6 -19 -30 -17 -31 2 -38 11 -18 23 6 4
14 2 16 -4 5 -17 22 -15 22 3 0 8 2 15 5 15 3 0 5 -9 5 -20z m62 -10 c6 0 8
-3 5 -6 -10 -11 -38 17 -30 30 5 7 9 5 11 -6 2 -10 8 -18 14 -18z m-157 -10
c-3 -6 4 -14 17 -19 13 -6 19 -10 13 -11 -66 -9 -70 -9 -53 1 10 5 15 16 12
24 -4 8 -1 15 6 15 6 0 8 -5 5 -10z m262 4 c-3 -3 -12 -4 -19 -1 -8 3 -5 6 6
6 11 1 17 -2 13 -5z m-317 -14 c8 13 10 13 10 -2 0 -12 -9 -16 -34 -15 -30 1
-32 3 -18 13 13 9 19 9 24 1 6 -9 11 -8 18 3z m-80 -10 c0 -5 -5 -10 -11 -10
-5 0 -7 5 -4 10 3 6 8 10 11 10 2 0 4 -4 4 -10z m270 -17 c0 -3 -6 -3 -14 0
-7 3 -20 0 -27 -6 -11 -10 -11 -9 0 5 11 15 41 15 41 1z m-300 -1 c0 -13 -29
-48 -30 -35 0 6 5 15 10 18 6 4 8 11 5 16 -4 5 -1 9 4 9 6 0 11 -4 11 -8z
m-95 -12 c-27 -12 -43 -12 -25 0 8 5 22 9 30 9 10 0 8 -3 -5 -9z m-85 -11 c0
6 10 11 23 11 21 -1 22 -1 2 -13 -22 -13 -95 -18 -95 -6 0 12 44 16 58 6 8 -6
12 -5 12 2z m140 -3 c0 -2 -7 -9 -15 -16 -13 -11 -14 -10 -9 4 5 14 24 23 24
12z m80 -6 c0 -5 -5 -10 -11 -10 -5 0 -7 5 -4 10 3 6 8 10 11 10 2 0 4 -4 4
-10z m60 0 c0 -5 -5 -10 -11 -10 -5 0 -7 5 -4 10 3 6 8 10 11 10 2 0 4 -4 4
-10z m-365 -10 c-3 -5 -13 -10 -21 -10 -8 0 -14 5 -14 10 0 6 9 10 21 10 11 0
17 -4 14 -10z m128 -2 c-6 -7 -13 -20 -16 -28 -3 -9 -6 -3 -6 13 -1 19 4 27
15 27 12 0 14 -4 7 -12z m-218 -8 c-16 -4 -41 -8 -55 -9 -20 0 -22 1 -10 9 8
5 33 9 55 9 39 -1 39 -2 10 -9z m-79 -15 c14 -13 14 -15 0 -15 -9 0 -16 4 -16
10 0 5 -8 7 -17 4 -15 -5 -16 -4 -3 5 19 14 19 14 36 -4z m234 11 c0 -2 -7 -7
-16 -10 -8 -3 -12 -2 -9 4 6 10 25 14 25 6z m-295 -17 c-4 -6 -13 -8 -20 -5
-7 2 -16 -2 -19 -10 -3 -9 1 -14 12 -15 10 0 12 -3 5 -6 -7 -2 -27 2 -44 11
-26 13 -39 14 -76 4 -36 -9 -44 -14 -40 -29 6 -23 1 -24 -19 -4 -9 8 -11 15
-5 15 6 0 11 4 11 9 0 11 -84 1 -88 -10 -5 -12 -32 1 -32 15 0 8 18 13 48 14
26 2 83 6 127 11 120 12 147 13 140 0z m172 3 c7 -4 -6 -8 -30 -9 -34 0 -37 1
-17 7 34 11 33 11 47 2z m296 -9 c-7 -2 -21 -2 -30 0 -10 3 -4 5 12 5 17 0 24
-2 18 -5z m-834 -17 c-10 -11 -69 -16 -69 -6 0 5 17 10 37 10 20 0 34 -2 32
-4z m41 -11 c0 -9 -9 -15 -24 -15 -13 0 -26 -5 -28 -12 -3 -9 -6 -9 -12 0 -5
8 3 14 24 19 22 4 28 8 18 14 -10 7 -9 9 5 9 9 0 17 -7 17 -15z m240 -4 c0 -3
-14 -6 -30 -7 -26 -1 -28 0 -13 11 16 12 43 10 43 -4z m113 2 c-7 -2 -19 -2
-25 0 -7 3 -2 5 12 5 14 0 19 -2 13 -5z m-685 -28 c-3 -3 -9 2 -12 12 -6 14
-5 15 5 6 7 -7 10 -15 7 -18z m426 10 c-4 -8 -10 -15 -15 -15 -4 0 -6 7 -3 15
4 8 10 15 15 15 4 0 6 -7 3 -15z m-474 -5 c0 -5 -2 -10 -4 -10 -3 0 -8 5 -11
10 -3 6 -1 10 4 10 6 0 11 -4 11 -10z m960 0 c0 -5 -5 -10 -11 -10 -5 0 -7 5
-4 10 3 6 8 10 11 10 2 0 4 -4 4 -10z m-537 -21 c-6 -6 -26 -9 -44 -6 l-34 4
38 1 c20 1 37 7 37 14 0 6 3 8 7 5 4 -4 2 -12 -4 -18z m152 11 c3 -5 -1 -10
-10 -10 -9 0 -13 5 -10 10 3 6 8 10 10 10 2 0 7 -4 10 -10z m-630 -10 c3 -6
-1 -7 -9 -4 -18 7 -21 14 -7 14 6 0 13 -4 16 -10z m208 -7 c-7 -2 -21 -2 -30
0 -10 3 -4 5 12 5 17 0 24 -2 18 -5z m182 -3 c3 -5 1 -10 -4 -10 -6 0 -11 5
-11 10 0 6 2 10 4 10 3 0 8 -4 11 -10z m-88 -6 c-3 -3 -12 -4 -19 -1 -8 3 -5
6 6 6 11 1 17 -2 13 -5z m1700 -96 c-3 -8 -6 -5 -6 6 -1 11 2 17 5 13 3 -3 4
-12 1 -19z m-51 -94 c-4 -9 -9 -15 -11 -12 -3 3 -3 13 1 22 4 9 9 15 11 12 3
-3 3 -13 -1 -22z"/>
<path d="M3300 4486 c0 -2 6 -9 14 -15 10 -9 15 -8 20 4 4 10 -1 15 -14 15
-11 0 -20 -2 -20 -4z"/>
<path d="M3350 4480 c0 -5 7 -10 15 -10 8 0 15 5 15 10 0 6 -7 10 -15 10 -8 0
-15 -4 -15 -10z"/>
<path d="M3567 4456 c-4 -10 0 -12 14 -9 22 6 26 23 5 23 -8 0 -16 -6 -19 -14z"/>
<path d="M3380 4420 c0 -5 6 -10 14 -10 8 0 18 5 21 10 3 6 -3 10 -14 10 -12
0 -21 -4 -21 -10z"/>
<path d="M3755 4380 c-19 -8 -19 -9 3 -9 12 -1 22 4 22 9 0 6 -1 10 -2 9 -2 0
-12 -4 -23 -9z"/>
<path d="M3950 4424 c0 -7 48 -54 56 -54 2 0 4 7 4 15 0 8 -6 15 -14 15 -8 0
-16 7 -20 15 -5 15 -26 21 -26 9z"/>
<path d="M3190 4146 c0 -24 18 -28 30 -6 9 17 8 20 -10 20 -11 0 -20 -6 -20
-14z"/>
<path d="M3514 4100 c1 -9 12 -16 26 -17 21 -1 21 -1 3 3 -12 3 -24 11 -26 17
-2 7 -3 5 -3 -3z"/>
<path d="M3489 4083 c-1 -5 -1 -16 0 -25 3 -21 -10 -23 -27 -6 -7 7 -12 9 -12
5 0 -4 9 -16 20 -27 16 -16 20 -17 20 -4 0 20 24 13 28 -9 2 -10 -6 -21 -20
-26 l-23 -10 23 0 c12 -1 22 3 22 7 0 4 9 8 20 8 11 0 20 -4 20 -8 0 -4 10 -7
23 -7 15 1 17 3 6 6 -25 6 -32 43 -8 43 10 0 19 -6 19 -14 0 -8 7 -17 16 -20
21 -8 24 -8 24 4 0 6 -6 10 -13 10 -7 0 -18 9 -25 20 -7 12 -18 17 -28 13 -9
-3 -20 0 -24 7 -7 11 -12 11 -23 2 -12 -10 -16 -9 -22 5 -5 10 -7 21 -7 26 1
4 0 7 -3 7 -3 0 -6 -3 -6 -7z m65 -58 c3 -9 0 -15 -8 -15 -8 0 -16 7 -20 15
-3 9 0 15 8 15 8 0 16 -7 20 -15z"/>
<path d="M3706 4055 c-3 -8 -1 -15 4 -15 6 0 10 7 10 15 0 8 -2 15 -4 15 -2 0
-6 -7 -10 -15z"/>
<path d="M3625 4051 c-3 -5 -1 -12 5 -16 5 -3 10 1 10 9 0 18 -6 21 -15 7z"/>
<path d="M3670 4050 c0 -5 5 -10 11 -10 5 0 7 5 4 10 -3 6 -8 10 -11 10 -2 0
-4 -4 -4 -10z"/>
<path d="M3735 4050 c-3 -5 1 -10 10 -10 9 0 13 5 10 10 -3 6 -8 10 -10 10 -2
0 -7 -4 -10 -10z"/>
<path d="M3930 4029 c0 -5 -4 -7 -10 -4 -5 3 -10 1 -10 -4 0 -6 7 -11 15 -11
8 0 15 7 15 15 0 8 -2 15 -5 15 -3 0 -5 -5 -5 -11z"/>
<path d="M3960 4026 c0 -9 5 -16 10 -16 6 0 10 4 10 9 0 6 -4 13 -10 16 -5 3
-10 -1 -10 -9z"/>
<path d="M3440 4018 c0 -9 5 -20 11 -23 17 -11 18 -2 3 19 -12 17 -14 17 -14
4z"/>
<path d="M3730 4021 c0 -5 -8 -12 -17 -14 -14 -4 -12 -5 5 -6 13 -1 22 5 22
14 0 8 -2 15 -5 15 -3 0 -5 -4 -5 -9z"/>
<path d="M4000 4011 c0 -5 -11 -12 -25 -15 -14 -4 -25 -13 -25 -21 0 -8 -7
-15 -16 -15 -8 0 -12 -5 -9 -10 3 -6 -1 -13 -9 -16 -9 -3 -14 -10 -11 -15 6
-9 36 -1 32 10 -1 4 10 19 25 34 28 28 45 36 32 15 -5 -8 -2 -9 10 -5 10 4 20
7 22 7 11 0 2 29 -11 34 -8 3 -15 2 -15 -3z"/>
<path d="M3650 3998 c0 -4 9 -8 20 -8 11 0 20 4 20 8 0 4 -9 8 -20 8 -11 0
-20 -4 -20 -8z"/>
<path d="M3848 3863 c7 -3 16 -2 19 1 4 3 -2 6 -13 5 -11 0 -14 -3 -6 -6z"/>
</g>
</svg>
