<?xml version="1.0" standalone="no"?>
<!DOCTYPE svg PUBLIC "-//W3C//DTD SVG 20010904//EN"
 "http://www.w3.org/TR/2001/REC-SVG-20010904/DTD/svg10.dtd">
<svg version="1.0" xmlns="http://www.w3.org/2000/svg"
 width="1000.000000pt" height="665.000000pt" viewBox="0 0 1000.000000 665.000000"
 preserveAspectRatio="xMidYMid meet">

<g transform="translate(0.000000,665.000000) scale(0.100000,-0.100000)"
fill="#000000" stroke="none">
<path d="M0 6642 c0 -4 9 -13 20 -20 15 -9 20 -23 20 -53 0 -24 4 -38 10 -34
6 3 10 21 10 40 0 41 12 46 100 37 64 -7 65 -7 68 -39 2 -23 -2 -33 -15 -37
-33 -10 429 4 652 19 120 9 221 18 224 20 2 3 -28 5 -67 5 -70 0 -72 1 -72 24
0 22 5 25 58 31 31 4 62 8 67 10 6 2 -234 4 -532 4 -299 1 -543 -2 -543 -7z
m920 -44 c0 -10 -8 -18 -17 -19 -10 0 -30 -2 -44 -4 -31 -4 -44 4 -53 31 -6
20 -3 22 40 22 26 1 49 4 52 7 8 7 22 -16 22 -37z m-364 13 c27 -1 39 -38 15
-45 -27 -8 -147 -10 -159 -2 -7 4 -12 17 -12 29 0 21 4 22 68 21 37 -1 77 -2
88 -3z m214 -14 c0 -30 -17 -35 -90 -28 -46 5 -55 9 -58 27 -3 20 2 21 72 23
74 2 76 1 76 -22z m-410 -17 c0 -28 -3 -30 -35 -30 -19 0 -38 -1 -42 -2 -8 -3
-23 48 -17 55 3 3 25 5 49 5 43 1 45 0 45 -28z"/>
<path d="M1110 6641 c26 -7 33 -27 17 -48 -7 -10 -3 -13 17 -13 28 0 31 6 16
30 -5 9 -5 19 2 27 8 10 1 13 -33 12 -35 -1 -39 -2 -19 -8z"/>
<path d="M1305 6640 c4 -6 11 -8 16 -5 14 9 11 15 -7 15 -8 0 -12 -5 -9 -10z"/>
<path d="M1530 6630 c0 -24 -4 -24 227 -5 98 8 198 16 223 18 25 2 -66 4 -202
5 -242 2 -248 2 -248 -18z"/>
<path d="M3340 6538 c0 -62 5 -131 10 -153 16 -70 23 -276 11 -322 -18 -66
-98 -127 -201 -153 -69 -17 -128 -49 -136 -72 -3 -12 -1 -37 5 -57 6 -20 17
-58 24 -86 16 -58 40 -70 55 -28 6 15 11 23 11 16 1 -6 19 -14 40 -18 22 -4
45 -13 52 -21 6 -8 17 -14 25 -14 25 0 27 -23 4 -42 -19 -15 -21 -24 -16 -56
11 -59 57 -255 66 -277 14 -35 21 -68 35 -167 20 -139 61 -222 132 -264 29
-17 72 -34 95 -37 24 -3 326 -3 672 -1 624 5 629 5 717 -17 81 -20 98 -21 182
-11 50 6 124 18 162 27 55 13 166 18 510 25 403 9 651 19 1258 50 120 7 229 9
242 6 25 -6 125 -101 125 -118 0 -6 8 -22 19 -36 31 -45 54 -130 48 -176 -22
-154 -49 -199 -129 -215 -29 -6 -62 -9 -73 -8 -16 2 -21 -7 -27 -53 -5 -30
-15 -64 -23 -77 -8 -12 -15 -29 -15 -37 0 -31 -46 -117 -65 -122 -32 -8 -103
-8 -205 0 -90 7 -98 6 -140 -17 -29 -16 -46 -33 -48 -47 -7 -45 32 -67 232
-131 230 -73 269 -86 414 -138 196 -70 265 -83 447 -82 141 1 167 3 218 23 35
14 67 35 80 52 63 83 68 86 170 111 84 21 106 23 145 14 26 -6 94 -10 152 -9
58 0 130 -2 161 -5 41 -5 65 -3 86 8 38 20 147 41 200 38 23 -1 72 -9 110 -17
37 -9 84 -18 103 -21 19 -3 46 -14 60 -25 23 -17 32 -18 76 -7 27 6 64 18 82
25 18 8 40 14 50 14 9 0 42 9 72 19 40 14 78 18 136 16 80 -2 180 -21 198 -37
6 -4 18 -8 28 -8 17 0 18 15 18 214 0 240 8 218 -80 231 -25 4 -72 14 -105 22
-72 18 -159 12 -213 -16 -45 -23 -97 -38 -205 -57 -45 -8 -116 -21 -158 -28
-42 -8 -86 -19 -98 -25 -11 -7 -46 -16 -76 -22 -80 -15 -116 0 -165 66 -72 98
-112 124 -238 156 -108 28 -120 29 -320 26 -234 -2 -235 -2 -308 75 -55 57
-77 102 -79 163 -4 106 51 206 148 264 l42 26 250 0 c655 0 1127 -10 1503 -30
l102 -6 0 242 0 242 -37 -6 c-21 -3 -348 -13 -728 -22 -379 -9 -712 -19 -739
-23 -44 -6 -52 -11 -71 -46 -30 -53 -86 -86 -139 -80 -52 6 -51 6 -111 -2 -33
-4 -72 0 -115 11 -80 21 -170 27 -368 25 -104 -2 -162 2 -183 11 -21 8 -33 9
-37 2 -9 -13 -109 -9 -155 6 -20 7 -37 20 -40 31 -7 27 -57 28 -57 2 0 -32
-52 -53 -132 -51 -40 0 -176 -2 -302 -6 l-229 -7 -61 -31 c-56 -29 -68 -32
-143 -30 -95 3 -142 3 -233 0 -56 -2 -75 3 -132 31 -48 24 -69 40 -78 62 -9
22 -19 30 -37 30 -17 0 -23 -5 -21 -17 4 -22 -54 -53 -98 -53 -17 0 -49 -6
-70 -13 -22 -8 -71 -17 -111 -21 -39 -3 -84 -11 -98 -16 -14 -5 -119 -12 -233
-15 -211 -6 -511 -17 -957 -35 -137 -5 -284 -15 -325 -21 -56 -8 -86 -7 -120
2 -25 6 -90 12 -145 13 -85 1 -105 4 -137 24 -33 20 -78 89 -78 119 0 5 -16
24 -35 41 -21 20 -39 48 -46 74 -13 49 -17 1097 -4 1236 l7 82 -31 0 -31 0 0
-112z"/>
<path d="M9050 6638 c0 -7 -3 -50 -7 -95 l-6 -83 35 0 c67 0 128 12 128 26 0
7 -11 24 -25 38 -14 14 -25 36 -25 49 0 30 -10 40 -27 26 -11 -9 -13 -7 -11
12 2 17 -2 24 -14 24 -9 0 -20 4 -24 8 -11 11 -24 8 -24 -5z"/>
<path d="M1300 6600 c0 -5 5 -10 10 -10 6 0 10 5 10 10 0 6 -4 10 -10 10 -5 0
-10 -4 -10 -10z"/>
<path d="M1 5023 c-1 -1046 0 -1102 16 -1096 10 4 20 9 23 13 12 14 161 50
185 44 30 -7 43 -30 78 -134 42 -125 51 -187 37 -270 -18 -106 -30 -115 -172
-135 -86 -12 -122 -14 -137 -6 -11 6 -22 11 -25 11 -3 0 -6 -776 -6 -1725 l0
-1725 623 0 623 0 -22 70 c-24 72 -23 103 2 93 21 -8 17 9 -10 46 -15 20 -22
40 -19 54 5 21 51 127 56 127 77 13 195 24 191 19 -2 -4 6 -11 18 -15 13 -4
29 -14 36 -23 9 -11 15 -12 18 -4 4 8 15 8 41 1 22 -6 38 -6 42 0 4 5 67 6
156 3 112 -5 158 -11 180 -23 27 -16 28 -17 8 -18 -13 0 -23 -4 -23 -9 0 -5
-9 -11 -20 -14 -30 -8 -24 -27 10 -33 16 -4 30 -13 30 -20 0 -23 49 -47 113
-56 36 -5 65 -14 69 -23 10 -16 102 -65 124 -65 8 0 14 -4 14 -8 0 -12 -39
-52 -50 -52 -6 0 -10 -11 -10 -25 l0 -25 3900 0 3900 0 0 848 0 849 -45 -7
-46 -7 6 31 c4 17 15 43 26 58 26 37 24 50 -8 46 -25 -3 -28 -6 -25 -39 2 -33
-1 -38 -33 -53 -19 -9 -35 -21 -35 -25 0 -5 -9 -11 -20 -14 -18 -5 -19 -2 -14
33 6 35 3 42 -25 68 -27 24 -33 39 -38 86 -6 56 -7 58 -32 51 -43 -12 -115
-13 -128 -2 -9 6 -17 6 -25 -1 -12 -9 -61 -16 -95 -13 -7 1 -13 7 -13 15 0 25
-30 26 -75 3 -60 -30 -57 -53 6 -49 l46 3 9 -53 c10 -64 7 -90 -8 -99 -12 -8
-68 19 -68 33 0 13 -75 -5 -87 -21 -17 -22 -16 -44 4 -86 20 -42 8 -64 -24
-46 -11 5 -29 8 -41 5 -17 -5 -20 -14 -20 -57 0 -133 2 -124 -47 -142 -42 -16
-46 -16 -70 -1 -14 9 -25 21 -25 27 0 6 -4 7 -10 4 -5 -3 -10 1 -10 9 0 9 6
16 13 16 28 0 42 47 30 103 -9 42 -8 55 3 67 11 13 11 23 2 52 -17 58 -5 84
57 119 45 25 55 36 55 57 1 42 30 71 80 80 40 7 45 11 48 36 6 49 -43 61 -100
26 -18 -11 -43 -20 -56 -20 -18 0 -28 -10 -43 -45 -11 -25 -32 -52 -48 -61
-31 -18 -51 -52 -51 -85 0 -12 -8 -23 -20 -26 -19 -5 -22 -12 -62 -154 -15
-52 -56 -94 -106 -106 -41 -11 -44 -10 -54 13 -9 20 -8 35 6 75 23 61 13 78
-33 59 -16 -6 -36 -10 -43 -7 -7 2 -26 -3 -43 -13 -16 -9 -55 -25 -85 -35
-102 -33 -100 -31 -100 -71 0 -21 7 -45 15 -54 13 -14 14 -22 4 -42 -9 -21
-21 -27 -68 -34 -31 -4 -91 -8 -133 -8 -43 0 -78 -4 -78 -8 0 -4 5 -8 12 -8 7
0 5 -6 -4 -17 -9 -10 -21 -43 -29 -73 -15 -62 -43 -110 -65 -110 -25 0 -9 187
22 267 13 34 24 72 24 85 0 13 11 50 25 83 27 66 32 110 13 121 -7 5 -76 9
-153 9 -109 2 -150 6 -185 20 -25 10 -83 21 -130 24 -73 5 -85 8 -82 23 2 15
-5 17 -50 15 -46 -2 -53 0 -50 15 2 13 -4 18 -22 18 -13 0 -26 4 -28 10 -2 6
-26 3 -62 -6 -72 -19 -181 -12 -241 16 -22 10 -64 21 -94 25 -69 9 -116 29
-143 60 -12 14 -29 25 -39 25 -9 0 -22 6 -28 14 -7 8 -27 18 -44 22 -18 4 -48
13 -67 21 -75 32 -106 46 -141 64 -27 14 -58 19 -118 19 -54 0 -92 5 -112 15
-24 13 -37 14 -67 5 -26 -8 -50 -8 -81 -1 -47 10 -365 6 -384 -6 -6 -4 2 -17
22 -34 18 -15 29 -29 24 -32 -8 -5 -75 4 -163 23 -92 20 -178 48 -263 89 -49
22 -94 41 -101 41 -7 0 -31 9 -54 20 -22 11 -46 20 -52 20 -7 0 -35 13 -64 29
-29 15 -65 31 -82 34 -42 8 -145 37 -169 46 -68 28 -184 62 -209 61 -15 0 -34
4 -41 10 -7 6 -55 16 -107 21 -51 6 -100 13 -108 16 -50 19 -102 -14 -98 -61
1 -17 -6 -47 -15 -65 -9 -19 -17 -40 -17 -47 0 -7 -6 -25 -14 -41 -8 -15 -27
-54 -43 -87 -16 -34 -43 -70 -63 -85 -83 -63 -251 -219 -266 -246 -6 -11 -23
-39 -37 -63 -35 -55 -63 -125 -71 -182 -6 -38 -23 -100 -44 -160 -3 -8 -6 -19
-6 -25 -2 -16 -40 -17 -61 -1 -19 15 -19 15 10 16 l31 0 13 98 c7 53 17 133
22 177 14 133 39 222 81 302 37 71 39 76 22 92 -9 9 -14 11 -11 5 4 -6 -15
-33 -41 -60 -26 -27 -60 -74 -76 -104 -127 -244 -134 -267 -120 -365 10 -64
10 -67 -12 -75 -12 -5 -37 -30 -55 -57 -17 -26 -38 -53 -47 -60 -27 -22 -6
-43 45 -44 26 -1 62 -5 78 -9 l30 -8 -30 -2 c-16 -1 -64 -1 -106 0 l-76 1 -42
-50 c-26 -31 -40 -55 -35 -63 4 -7 4 -10 0 -6 -8 6 -86 -70 -86 -84 0 -4 -7
-14 -16 -22 -13 -14 -14 -16 0 -16 8 0 18 4 21 10 9 15 52 12 58 -5 9 -22 -9
-28 -59 -20 -36 5 -45 3 -51 -10 -3 -10 -1 -20 6 -24 7 -4 76 -13 154 -20 78
-6 161 -14 183 -17 41 -6 42 -5 89 58 27 34 72 90 100 123 28 33 56 73 63 89
9 20 16 26 23 19 12 -12 3 -53 -12 -53 -5 0 -9 -5 -9 -10 0 -7 7 -7 20 0 11 6
24 8 29 5 5 -3 11 0 13 6 2 7 9 5 17 -5 12 -14 10 -16 -11 -16 -19 0 -37 -19
-90 -96 -82 -119 -81 -128 14 -144 132 -23 322 -38 342 -28 12 7 15 13 8 17
-11 7 45 103 73 126 6 6 18 28 26 50 8 22 26 52 40 67 15 15 40 49 57 75 18
26 35 53 39 58 19 24 93 152 93 161 0 23 143 114 180 114 22 0 8 -42 -25 -79
-19 -21 -35 -48 -35 -60 0 -14 -6 -21 -19 -21 -24 0 -104 -107 -96 -128 3 -8
-3 -16 -15 -19 -27 -7 -100 -121 -100 -155 0 -17 -5 -28 -14 -28 -7 0 -36 -30
-63 -67 -46 -64 -48 -70 -40 -105 6 -26 14 -38 27 -38 38 0 87 -31 125 -79 22
-28 45 -50 52 -51 7 0 16 -6 20 -13 4 -7 19 -21 33 -30 24 -17 21 -17 -85 -12
-60 3 -249 12 -420 20 -170 8 -391 21 -490 30 -99 8 -241 19 -316 25 -75 5
-217 19 -315 30 -98 11 -251 27 -339 35 -88 8 -223 21 -300 30 -77 8 -302 31
-500 51 -435 43 -495 54 -552 107 -48 44 -29 70 168 230 l106 86 85 12 c64 9
108 9 179 1 l94 -12 35 33 c19 18 107 100 195 182 163 151 227 212 439 416
306 292 389 372 506 487 69 67 137 130 151 140 49 32 196 177 203 199 6 19 2
25 -17 32 -24 9 -25 12 -16 52 13 58 21 70 81 124 91 82 117 90 308 91 183 1
552 -11 642 -20 32 -4 66 -2 77 3 10 6 28 38 40 73 67 188 117 312 157 390 43
85 56 147 32 149 -7 0 -40 2 -73 5 -217 17 -292 21 -390 17 -60 -2 -137 -9
-170 -14 -33 -6 -103 -17 -155 -24 -97 -15 -132 -21 -280 -51 -47 -9 -119 -18
-160 -20 l-75 -3 -2 -72 c-2 -84 -22 -145 -61 -182 -16 -15 -66 -53 -112 -84
-46 -32 -86 -64 -88 -72 -3 -8 0 -11 6 -8 5 4 15 0 22 -8 18 -22 5 -90 -33
-165 -27 -55 -44 -74 -115 -127 -46 -35 -92 -63 -103 -63 -25 0 -94 -34 -197
-98 -46 -29 -92 -52 -103 -52 -11 0 -22 -6 -25 -14 -12 -30 -281 -236 -309
-236 -9 0 -13 -4 -77 -65 -21 -19 -46 -35 -56 -35 -11 0 -24 -11 -31 -26 -9
-20 -17 -25 -35 -22 -18 4 -28 -2 -40 -22 -12 -21 -21 -26 -41 -22 -23 4 -25
1 -25 -31 0 -30 -8 -42 -47 -77 -39 -33 -54 -40 -80 -38 -27 3 -32 0 -37 -24
-4 -20 -12 -28 -26 -28 -11 0 -20 -4 -20 -9 0 -5 -8 -7 -18 -4 -13 3 -24 -6
-37 -31 -11 -20 -24 -36 -30 -36 -5 0 -22 -13 -37 -29 -30 -31 -200 -156 -249
-183 -17 -9 -36 -22 -42 -30 -11 -13 -67 -56 -92 -70 -6 -4 -9 10 -6 38 3 39
1 44 -18 44 -12 0 -21 4 -21 9 0 18 -43 20 -56 3 -7 -9 -16 -14 -20 -9 -9 9
45 67 63 67 7 0 17 9 23 20 16 30 44 26 36 -5 -11 -43 6 -50 20 -9 7 21 12 39
11 39 -57 24 -58 25 -46 46 8 16 13 18 19 9 5 -8 15 -10 26 -5 11 4 30 8 44 8
14 1 34 9 45 20 30 28 55 40 55 26 0 -8 4 -8 15 1 8 7 15 21 15 30 0 10 7 20
16 22 11 2 17 18 19 56 2 29 7 63 11 74 6 21 6 21 -17 6 -13 -8 -49 -30 -79
-49 -76 -46 -199 -131 -299 -206 -46 -35 -90 -63 -97 -63 -15 0 -20 16 -74
220 -23 85 -77 288 -120 450 -43 162 -117 444 -164 625 -94 366 -127 471 -145
467 -7 -1 -18 3 -26 10 -43 39 -47 41 -55 29 -4 -8 -11 2 -17 26 -122 449
-251 964 -358 1418 -25 110 -64 272 -85 360 -22 87 -38 161 -36 162 4 5 46
-106 46 -122 0 -23 39 -105 49 -103 11 4 51 -41 51 -58 0 -7 5 -16 11 -20 16
-10 6 53 -36 220 -19 75 -35 151 -36 169 -2 44 -58 295 -74 332 -7 17 -18 44
-23 60 -7 21 -11 -316 -11 -1072z m166 -225 c-3 -8 -6 -5 -6 6 -1 11 2 17 5
13 3 -3 4 -12 1 -19z m113 -425 c109 -429 157 -618 334 -1298 224 -865 388
-1516 383 -1522 -4 -4 -24 63 -103 352 -24 88 -50 183 -58 210 -8 28 -27 95
-41 150 -40 151 -70 266 -110 415 -82 305 -446 1778 -511 2070 -3 14 -3 22 1
18 4 -3 51 -181 105 -395z m20 -1240 c11 -10 20 -23 20 -30 0 -7 4 -13 9 -13
17 0 40 -85 46 -170 7 -114 24 -233 34 -240 4 -3 22 -32 39 -64 35 -64 43
-126 17 -126 -20 0 -42 -47 -28 -61 5 -5 8 -23 5 -39 -4 -25 -9 -30 -33 -30
-18 0 -29 5 -29 13 0 8 -15 43 -34 78 -19 35 -44 98 -56 139 -12 41 -28 89
-35 105 -26 56 -64 200 -79 292 -17 102 -8 148 27 137 10 -3 17 -2 16 3 -3 19
3 23 31 23 16 0 39 -8 50 -17z m2907 -471 c-9 -10 -17 -24 -17 -31 0 -17 -73
-88 -86 -84 -6 2 -26 -10 -44 -27 -17 -16 -36 -30 -40 -30 -4 0 -10 -10 -13
-21 -4 -16 -11 -20 -26 -16 -12 3 -21 0 -21 -6 -1 -18 -47 -67 -63 -67 -8 0
-30 -14 -48 -31 -18 -17 -54 -42 -81 -55 -26 -13 -48 -31 -48 -39 0 -8 -17
-27 -37 -42 -41 -30 -76 -65 -100 -101 -12 -18 -18 -20 -24 -10 -7 10 -12 8
-24 -9 -9 -13 -25 -23 -36 -23 -10 0 -19 -4 -19 -8 0 -5 -18 -15 -39 -22 -26
-8 -38 -17 -34 -26 3 -9 0 -12 -9 -9 -16 6 -69 -23 -124 -69 -24 -20 -34 -36
-34 -57 0 -16 -4 -29 -10 -29 -5 0 -10 7 -10 15 0 21 -11 19 -42 -10 -15 -14
-33 -25 -40 -25 -23 -1 -58 -38 -58 -62 -1 -22 -1 -22 -15 -4 -14 18 -16 17
-52 -18 -21 -20 -50 -42 -65 -49 -16 -6 -28 -18 -28 -24 0 -7 -7 -13 -15 -13
-9 0 -27 -11 -41 -25 -14 -14 -29 -25 -34 -25 -6 0 -18 -8 -28 -17 -44 -42
-83 -73 -92 -73 -5 0 -15 -9 -22 -19 -11 -18 -14 -18 -40 -5 -15 8 -28 16 -28
18 0 4 183 154 246 202 22 17 49 38 60 47 27 23 176 138 209 162 15 11 114 84
219 163 105 78 202 150 215 160 14 9 37 27 52 40 15 12 32 22 38 22 6 0 11 5
11 10 0 6 5 10 10 10 6 0 21 10 34 23 33 32 65 57 72 57 4 0 28 18 54 40 26
22 53 40 59 40 6 0 11 4 11 8 0 5 19 19 42 32 24 13 65 41 93 62 27 21 64 45
80 53 17 8 41 24 55 34 31 24 52 11 27 -17z m1886 -573 c122 -62 262 -135 311
-163 186 -105 163 -98 379 -122 30 -4 46 -10 44 -17 -2 -7 2 -24 11 -38 20
-36 9 -75 -27 -93 -26 -14 -31 -14 -51 4 -12 10 -45 27 -73 36 -29 9 -56 20
-62 24 -5 4 -23 10 -40 14 -16 4 -50 20 -75 36 -61 39 -371 188 -439 211 -30
11 -64 25 -75 33 -38 24 -119 46 -170 46 -48 0 -52 -2 -103 -57 -29 -31 -53
-60 -53 -65 0 -17 -81 -96 -106 -102 -47 -12 -179 -83 -213 -114 -18 -18 -39
-32 -45 -32 -29 0 -64 -56 -115 -183 -6 -15 -11 -59 -11 -96 0 -52 -4 -70 -15
-75 -10 -4 -15 1 -15 15 0 25 -27 36 -51 21 -10 -7 -25 -9 -33 -6 -9 3 -21 -5
-31 -20 -17 -25 -45 -36 -45 -16 0 11 62 74 116 116 l39 31 11 134 c12 150 26
190 96 265 58 63 219 168 421 273 147 77 149 77 420 -60z m954 -305 c-3 -3
-12 -4 -19 -1 -8 3 -5 6 6 6 11 1 17 -2 13 -5z m-4776 -44 c1 -5 3 -14 4 -20
1 -5 3 -19 4 -30 1 -12 6 -17 15 -14 22 8 28 -12 9 -31 -9 -9 -33 -28 -55 -41
l-38 -24 -22 22 c-21 21 -21 23 -5 51 9 16 17 39 17 52 0 16 8 26 28 33 36 14
42 14 43 2z m7395 -190 c31 0 11 -44 -24 -54 -39 -11 -51 -3 -30 21 8 10 19
32 23 48 8 27 9 28 12 8 3 -13 11 -23 19 -23z m-7659 -32 c-3 -8 -6 -5 -6 6
-1 11 2 17 5 13 3 -3 4 -12 1 -19z m3810 16 c-3 -3 -12 -4 -19 -1 -8 3 -5 6 6
6 11 1 17 -2 13 -5z m163 -108 c0 -11 -19 -15 -25 -6 -3 5 1 10 9 10 9 0 16
-2 16 -4z m44 -25 c4 -5 -3 -7 -14 -4 -23 6 -26 13 -6 13 8 0 17 -4 20 -9z
m-264 -36 c0 -16 -35 -29 -50 -20 -14 9 -13 32 3 38 20 6 47 -4 47 -18z m537
-108 c99 -132 106 -168 35 -178 -24 -3 -47 -10 -50 -15 -4 -5 -26 -10 -48 -10
-23 -1 -52 -9 -65 -17 -13 -9 -40 -18 -60 -22 -28 -5 -45 -18 -74 -56 -23 -30
-45 -49 -57 -49 -15 0 -18 3 -11 13 11 13 -2 77 -15 77 -5 0 -13 -15 -20 -33
-18 -50 -34 -68 -51 -58 -12 8 -8 19 21 63 20 30 38 63 40 74 2 12 11 18 25
17 12 -1 24 4 27 12 3 8 1 15 -4 15 -17 0 -11 21 22 69 17 26 32 61 33 81 2
23 8 36 19 38 9 2 16 7 16 11 0 4 14 28 31 54 l30 46 59 -40 c32 -21 75 -63
97 -92z m-287 112 c0 -8 4 -8 13 -1 8 7 18 7 27 2 13 -8 13 -11 -1 -25 -17
-18 -76 -29 -83 -16 -6 10 22 51 35 51 5 0 9 -5 9 -11z m70 -28 c-6 -12 -16
-21 -23 -21 -8 0 -9 3 -1 8 6 4 14 16 17 26 4 10 10 16 13 13 3 -3 1 -15 -6
-26z m-881 -24 c9 -11 4 -14 -24 -15 -34 -1 -47 11 -22 21 21 9 34 7 46 -6z
m201 -17 c0 -8 -34 -20 -57 -20 -7 0 -13 6 -13 13 0 8 13 13 35 14 19 1 35 -3
35 -7z m-3281 -162 c5 -22 6 -36 1 -32 -8 9 -50 144 -49 160 0 15 39 -85 48
-128z m2391 107 c-6 -8 -8 -20 -4 -27 5 -10 4 -10 -6 -1 -11 10 -11 15 0 28 7
8 15 15 17 15 3 0 0 -7 -7 -15z m743 -42 c87 -11 34 -22 -60 -12 -119 12 -170
32 -63 24 41 -3 97 -8 123 -12z m685 -8 c2 -2 1 -13 -3 -24 -4 -15 -15 -21
-36 -21 -26 0 -29 3 -29 31 0 29 1 30 33 24 17 -4 34 -9 35 -10z m-1458 -35
c0 -5 -4 -10 -10 -10 -5 0 -10 5 -10 10 0 6 5 10 10 10 6 0 10 -4 10 -10z
m-40 -14 c0 -2 -7 -7 -16 -10 -8 -3 -12 -2 -9 4 6 10 25 14 25 6z m243 -33
c38 -6 46 -20 25 -41 -15 -15 -132 -16 -159 -2 -10 6 -19 17 -19 25 0 18 56
36 90 29 14 -2 42 -7 63 -11z m-170 -40 c-7 -2 -21 -2 -30 0 -10 3 -4 5 12 5
17 0 24 -2 18 -5z m726 -8 c12 -13 -13 -33 -46 -38 -40 -5 -93 18 -77 33 19
17 107 20 123 5z m582 -55 c5 0 9 -6 9 -14 0 -25 -56 -36 -78 -14 -9 9 -6 14
11 24 12 6 28 10 35 8 8 -2 18 -4 23 -4z m-3446 -569 c3 -5 1 -12 -5 -16 -5
-3 -10 1 -10 9 0 18 6 21 15 7z"/>
<path d="M1207 1665 c-9 -23 11 -28 23 -5 8 16 8 20 -4 20 -7 0 -16 -7 -19
-15z"/>
<path d="M5885 4070 c7 -11 65 -40 81 -40 13 0 -41 37 -65 45 -17 5 -21 4 -16
-5z"/>
<path d="M6471 3759 c-6 -18 -11 -40 -11 -49 0 -23 41 -83 60 -86 8 -2 25 -5
38 -8 14 -3 40 4 65 18 36 21 42 29 42 58 0 28 -7 37 -49 66 -36 24 -59 32
-91 32 -39 0 -44 -3 -54 -31z"/>
<path d="M5330 3735 c-28 -14 -70 -62 -190 -215 -29 -36 -66 -81 -83 -100 -18
-19 -48 -55 -67 -80 -19 -25 -42 -53 -52 -64 -9 -10 -23 -32 -32 -50 -21 -44
-4 -59 68 -57 65 1 90 -7 161 -54 37 -25 63 -35 91 -35 64 0 67 6 47 88 -15
62 -15 81 -4 133 16 81 61 151 116 183 74 44 131 33 164 -32 28 -55 35 -97 32
-199 -2 -89 -1 -93 21 -97 62 -14 74 -11 86 23 7 20 7 43 0 73 -21 92 13 188
80 226 68 38 136 28 208 -30 80 -64 142 -138 182 -215 38 -74 47 -83 80 -93
81 -22 161 1 177 51 11 33 -14 131 -49 195 -30 54 -36 59 -82 69 -27 7 -65 21
-84 33 -41 25 -140 41 -227 38 -34 -1 -61 0 -60 3 4 12 -109 114 -140 128 -43
17 -117 17 -181 -2 -68 -21 -113 -12 -142 26 -19 27 -76 70 -90 69 -3 -1 -16
-7 -30 -15z"/>
<path d="M9930 3730 c-9 -17 -14 -18 -31 -9 -22 11 -79 5 -113 -13 -26 -14
-96 -17 -122 -6 -14 7 -38 4 -80 -10 -41 -14 -63 -16 -72 -9 -22 17 -111 19
-135 2 -12 -8 -31 -15 -42 -15 -11 0 -31 -9 -45 -20 -33 -25 -55 -25 -98 2
-45 27 -125 30 -162 5 -23 -15 -29 -15 -53 -2 -31 16 -62 9 -91 -20 -15 -15
-22 -16 -64 -5 -26 7 -53 17 -59 23 -18 14 -43 1 -43 -23 0 -20 -24 -28 -35
-11 -3 6 -21 2 -43 -9 -20 -10 -62 -23 -93 -30 -32 -6 -65 -20 -74 -30 -10
-11 -25 -20 -34 -19 -30 1 -76 35 -92 67 -27 54 -39 62 -85 62 -54 0 -70 -16
-79 -80 -9 -67 -24 -75 -160 -89 -258 -26 -550 -8 -708 44 -141 46 -408 66
-441 32 -18 -18 -20 -30 -7 -55 5 -9 14 -43 20 -76 6 -32 18 -72 26 -89 8 -16
15 -49 15 -73 0 -43 -9 -58 -101 -174 -31 -38 -56 -103 -90 -233 -25 -95 -46
-125 -77 -108 -11 6 -31 11 -44 11 -29 0 -87 -35 -95 -58 -3 -9 -17 -28 -29
-43 l-24 -25 33 -11 c55 -20 190 -52 369 -88 249 -50 372 -92 593 -201 l140
-69 98 -3 99 -4 14 -34 c8 -19 25 -39 37 -43 24 -10 201 -49 392 -87 66 -14
143 -30 172 -36 62 -13 113 -6 151 21 16 11 41 23 58 27 16 4 48 17 72 30 96
53 260 54 457 3 44 -11 105 -24 135 -29 65 -10 130 -26 185 -48 24 -9 95 -18
180 -22 129 -7 145 -10 202 -38 33 -17 77 -45 96 -61 19 -17 37 -31 41 -31 3
0 6 412 6 915 l0 915 -30 0 c-19 0 -33 -7 -40 -20z m-1955 -1240 c8 -24 -52
-109 -76 -110 -31 0 -40 70 -13 108 20 29 80 31 89 2z"/>
<path d="M5916 2865 c-28 -12 -28 -13 -10 -23 11 -6 64 -22 118 -36 87 -23
101 -24 119 -11 11 8 32 12 46 10 14 -3 20 -2 14 1 -7 3 -13 12 -13 19 0 14
-8 16 -125 35 -114 18 -119 18 -149 5z"/>
<path d="M4397 2792 c-20 -2 -27 -8 -23 -18 3 -8 2 -12 -3 -9 -6 3 -9 -8 -9
-25 1 -25 4 -29 20 -25 10 4 18 2 18 -3 0 -14 82 -2 101 14 8 8 25 14 37 14
17 0 22 6 22 25 0 17 -6 25 -17 26 -42 4 -120 4 -146 1z"/>
<path d="M4800 2681 c0 -4 13 -14 29 -24 27 -16 29 -16 35 -1 4 9 4 19 1 22
-7 8 -65 10 -65 3z"/>
<path d="M4884 2659 c-3 -6 0 -22 7 -36 12 -22 11 -27 -6 -39 -10 -8 -15 -15
-9 -15 5 -1 -4 -4 -21 -8 l-30 -6 45 -16 c25 -9 105 -37 177 -63 73 -26 189
-74 257 -106 138 -67 176 -74 176 -36 0 27 9 31 82 41 26 4 55 13 65 21 17 13
16 16 -17 44 -20 18 -46 30 -62 30 -15 0 -28 3 -28 8 0 4 -10 12 -23 18 -119
61 -150 75 -179 81 -18 3 -46 14 -63 24 -34 19 -130 34 -120 19 13 -21 -68 -6
-132 23 -12 5 -36 10 -53 9 -16 0 -32 4 -35 9 -8 12 -22 11 -31 -2z"/>
<path d="M4313 2526 c-29 -27 -41 -34 -49 -28 -4 4 -4 1 0 -6 5 -8 -5 -24 -26
-44 -18 -17 -32 -35 -30 -41 2 -5 -4 -7 -13 -4 -9 4 -15 1 -15 -8 0 -8 -15
-31 -32 -52 l-33 -37 30 21 c45 32 193 199 184 208 -2 1 -9 -2 -16 -9z"/>
<path d="M5741 2396 c-20 -24 -7 -42 45 -65 96 -43 241 -62 312 -42 l24 6 -28
24 c-32 28 -148 67 -224 74 -30 3 -69 9 -86 12 -21 5 -34 2 -43 -9z"/>
<path d="M3720 2275 c7 -9 15 -13 17 -11 7 7 -7 26 -19 26 -6 0 -6 -6 2 -15z"/>
<path d="M1700 2250 c-13 -8 -13 -10 2 -10 9 0 20 5 23 10 8 13 -5 13 -25 0z"/>
<path d="M1654 2220 c-30 -12 -35 -23 -28 -59 8 -40 30 -40 39 0 l7 31 18 -26
17 -27 16 33 c17 36 13 53 -7 25 -18 -24 -26 -21 -26 8 0 27 -4 28 -36 15z"/>
<path d="M3450 2185 c-15 -18 20 -29 80 -26 25 1 57 -5 72 -13 25 -13 29 -13
37 3 19 34 -3 45 -93 47 -59 1 -89 -3 -96 -11z"/>
<path d="M3110 2132 c0 -5 7 -9 15 -9 8 0 12 4 9 9 -3 4 -9 8 -15 8 -5 0 -9
-4 -9 -8z"/>
<path d="M1696 2105 c-3 -8 -1 -15 4 -15 6 0 10 7 10 15 0 8 -2 15 -4 15 -2 0
-6 -7 -10 -15z"/>
<path d="M1655 2077 c-4 -10 -5 -21 -1 -24 10 -10 18 4 13 24 -4 17 -4 17 -12
0z"/>
<path d="M3317 2062 c-16 -18 -16 -19 8 -30 14 -7 50 -12 79 -12 38 0 61 -6
79 -20 l25 -20 16 25 c32 49 18 59 -84 60 -41 0 -82 4 -91 8 -10 5 -21 1 -32
-11z"/>
<path d="M8917 2023 c-10 -9 -9 -43 1 -43 15 0 30 22 25 36 -6 15 -16 18 -26
7z"/>
<path d="M2938 1994 c-16 -8 -28 -22 -28 -30 0 -14 2 -14 15 0 11 10 26 13 45
9 16 -3 37 -2 47 2 16 6 15 8 -7 20 -31 18 -39 18 -72 -1z"/>
<path d="M3692 1983 c-7 -3 -19 -18 -27 -34 -15 -27 -14 -29 4 -29 37 0 51 12
51 41 0 29 -4 32 -28 22z"/>
<path d="M3173 1937 c-6 -6 -13 -19 -16 -29 -7 -20 30 -33 90 -29 60 4 103 -8
111 -30 6 -16 13 -12 49 30 l43 49 -78 6 c-42 4 -102 8 -133 11 -38 3 -60 0
-66 -8z"/>
<path d="M7494 1920 c0 -29 23 -33 29 -4 3 17 0 24 -12 24 -10 0 -17 -8 -17
-20z"/>
<path d="M1420 1895 c-10 -12 -10 -15 3 -15 19 0 31 16 18 24 -5 3 -14 -1 -21
-9z"/>
<path d="M2762 1845 c-22 -16 -30 -45 -12 -45 6 0 10 5 10 10 0 6 22 10 54 9
68 -2 97 13 41 22 -22 3 -47 9 -55 13 -8 3 -25 -1 -38 -9z"/>
<path d="M8783 1844 c-3 -8 -1 -26 6 -40 6 -14 11 -41 11 -60 0 -50 19 -40 52
26 38 77 37 84 -17 88 -34 2 -47 -2 -52 -14z"/>
<path d="M3542 1838 c-7 -7 -12 -20 -12 -29 0 -10 -10 -25 -22 -33 -12 -9 -22
-25 -23 -36 -2 -27 8 -25 20 3 9 19 18 22 67 22 37 1 63 6 75 16 10 9 26 19
36 22 26 10 21 24 -14 36 -42 15 -112 14 -127 -1z"/>
<path d="M1476 1805 c-11 -8 -18 -17 -15 -19 2 -2 15 4 28 15 27 22 15 26 -13
4z"/>
<path d="M3028 1808 c-8 -7 -18 -25 -20 -40 -4 -22 -1 -28 13 -28 10 0 25 -7
33 -16 9 -8 16 -11 16 -5 0 12 80 15 117 5 29 -8 40 -42 19 -62 -13 -14 -32
-14 -168 -3 -85 7 -161 9 -171 5 -23 -9 -22 -50 4 -77 11 -12 18 -15 14 -7 -4
13 6 14 70 12 41 -2 75 -7 75 -10 0 -4 21 -7 48 -6 26 1 41 -1 35 -3 -7 -3
-13 -10 -13 -18 0 -7 -6 -18 -14 -24 -12 -10 -13 -8 -9 8 3 12 1 21 -4 21 -6
0 -10 -10 -10 -22 0 -50 -11 -59 -67 -52 -37 5 -59 15 -79 36 -29 29 -47 36
-47 18 0 -5 -5 -10 -11 -10 -8 0 -8 4 0 14 10 12 8 19 -8 35 -12 12 -29 21
-38 21 -13 -1 -10 -5 10 -16 24 -13 27 -20 22 -44 -5 -24 -3 -29 17 -33 13 -3
-22 -5 -77 -4 -97 2 -100 1 -103 -20 -2 -13 -2 -23 0 -23 2 -1 27 -3 55 -6 29
-3 65 -9 80 -14 24 -7 22 -9 -22 -10 -43 -2 -46 -3 -20 -9 l30 -7 -28 -6 c-21
-4 -34 0 -48 16 -16 16 -19 17 -14 4 5 -12 2 -18 -6 -19 -8 0 -3 -5 10 -10 13
-5 38 -7 55 -4 46 8 121 -8 121 -25 0 -21 -125 -23 -132 -2 -4 9 -14 11 -32 6
-54 -14 -139 -14 -151 1 -9 11 -16 12 -31 2 -18 -11 -18 -12 -1 -19 13 -5 10
-7 -11 -7 -27 -1 -47 -25 -33 -39 4 -4 42 -10 84 -13 42 -4 123 -13 178 -20
l101 -12 62 64 c47 50 60 69 56 87 -4 17 -1 22 16 22 25 0 129 104 129 129 0
22 19 41 42 41 10 0 18 4 18 10 0 5 18 28 40 52 22 24 42 50 45 60 3 9 17 23
30 32 34 22 31 32 -7 33 -59 1 -200 12 -227 18 -15 3 -33 0 -43 -7z m-111
-456 l-37 -38 -68 7 c-37 5 -78 8 -91 8 -13 1 -21 4 -18 7 8 9 119 8 146 -1
22 -7 79 21 67 32 -3 3 2 12 12 19 32 23 26 4 -11 -34z m-272 -2 c-3 -5 -14
-10 -23 -9 -14 0 -13 2 3 9 27 11 27 11 20 0z m42 -6 c-3 -3 -12 -4 -19 -1 -8
3 -5 6 6 6 11 1 17 -2 13 -5z"/>
<path d="M8510 1759 c0 -5 5 -7 10 -4 6 3 10 8 10 11 0 2 -4 4 -10 4 -5 0 -10
-5 -10 -11z"/>
<path d="M2598 1704 c-21 -11 -28 -22 -28 -44 0 -36 3 -37 31 -9 16 16 27 19
47 13 41 -11 76 -6 90 14 12 16 9 17 -40 20 -29 2 -57 7 -63 12 -6 5 -22 2
-37 -6z"/>
<path d="M3403 1698 c-13 -6 -23 -20 -23 -32 0 -12 -3 -31 -6 -43 -4 -14 -2
-23 5 -23 6 0 11 7 11 16 0 14 8 16 53 10 83 -11 97 -17 97 -37 0 -10 6 -19
13 -20 6 -1 1 -4 -13 -8 -25 -7 -24 -8 8 -15 17 -4 32 -12 32 -17 0 -6 -4 -8
-9 -4 -13 8 -171 20 -261 20 -60 0 -75 -3 -75 -15 0 -11 14 -16 50 -18 28 -2
54 -8 60 -13 6 -6 -10 -7 -48 -3 -36 4 -57 3 -57 -3 0 -6 11 -9 25 -8 14 2 37
0 53 -5 27 -8 27 -8 -8 -10 -19 -1 -39 -1 -45 0 -5 1 -7 -1 -3 -5 3 -4 32 -9
64 -11 72 -5 88 -18 55 -45 -26 -21 -98 -26 -134 -8 -22 10 -22 10 -2 -6 19
-16 14 -17 -75 -13 -89 3 -95 2 -95 -17 0 -18 9 -21 84 -27 46 -4 88 -11 93
-16 9 -9 -39 -8 -109 2 -13 2 -23 -1 -23 -5 0 -5 18 -9 41 -9 22 0 38 -3 36
-7 -3 -5 17 -6 43 -5 42 3 49 1 55 -18 5 -16 10 -19 20 -10 8 6 11 18 8 26 -3
8 1 14 10 14 32 0 27 -20 -15 -62 -24 -24 -40 -39 -35 -34 4 6 7 17 7 25 -1
10 -6 7 -14 -9 -8 -14 -24 -26 -38 -27 -20 -1 -23 3 -23 35 0 33 -2 37 -25 35
-57 -6 -70 -13 -70 -38 0 -14 -6 -26 -12 -26 -37 -5 -54 -3 -65 5 -7 4 -13 5
-13 1 0 -4 -8 -1 -17 6 -16 13 -17 12 -4 -3 11 -15 11 -21 1 -33 -7 -8 -10
-24 -7 -34 3 -13 -1 -21 -12 -24 -9 -3 -6 -5 9 -6 23 -1 26 3 25 34 -1 23 3
35 11 35 8 0 11 -6 7 -17 -5 -13 -2 -15 11 -10 10 4 23 7 29 7 7 0 6 4 -3 10
-12 8 -10 10 10 11 44 2 145 -3 150 -8 8 -7 -32 -33 -41 -27 -5 3 -9 -2 -9
-10 0 -9 -9 -16 -20 -16 -10 0 -23 -7 -27 -15 -7 -12 -27 -13 -128 -5 -178 14
-185 14 -185 -10 0 -11 3 -20 8 -20 4 0 88 -7 187 -16 l180 -15 34 38 c19 21
63 69 98 107 41 44 63 77 63 92 0 16 6 24 18 24 24 0 122 116 122 146 0 16 6
24 18 24 24 0 96 88 99 120 1 14 4 39 5 55 3 33 20 29 -182 49 -33 4 -64 1
-77 -6z m-60 -325 c-13 -2 -33 -2 -45 0 -13 2 -3 4 22 4 25 0 35 -2 23 -4z
m107 -9 c0 -2 -11 -3 -24 -2 -14 1 -23 5 -20 9 4 7 44 0 44 -7z m-90 -107
c-19 -24 -45 -52 -59 -62 l-26 -20 20 26 c50 63 90 107 94 104 2 -3 -11 -24
-29 -48z m-160 -46 c0 -5 -11 -8 -25 -8 -14 0 -28 3 -31 8 -3 5 9 9 25 9 17 0
31 -4 31 -9z m70 -21 c0 -5 -5 -10 -11 -10 -5 0 -7 5 -4 10 3 6 8 10 11 10 2
0 4 -4 4 -10z m-10 -44 c0 -2 -8 -10 -17 -17 -16 -13 -17 -12 -4 4 13 16 21
21 21 13z m-40 -31 c11 -13 7 -15 -31 -13 -37 1 -39 2 -11 5 18 2 30 9 27 14
-10 14 1 11 15 -6z"/>
<path d="M2611 1593 c-1 -12 -7 -24 -13 -26 -10 -4 -10 -6 0 -6 15 -1 26 23
19 41 -3 7 -6 3 -6 -9z"/>
<path d="M2441 1569 c-19 -16 -37 -29 -42 -29 -4 0 -9 -12 -11 -27 -2 -20 -10
-29 -33 -35 -36 -10 -138 -97 -114 -98 9 0 22 7 29 15 7 8 17 15 22 15 6 0 6
-5 -1 -14 -9 -11 -6 -13 14 -11 14 2 25 -1 25 -7 0 -6 -25 -8 -62 -6 -61 3
-63 2 -63 -22 0 -20 -6 -26 -30 -28 -21 -2 -53 -24 -103 -71 -98 -90 -94 -101
37 -101 l96 0 73 69 c50 48 70 74 66 85 -4 11 0 16 13 16 21 0 63 27 63 41 0
5 -18 9 -41 9 -26 0 -38 4 -33 11 3 6 19 9 35 7 17 -3 30 1 33 9 3 7 11 13 17
13 8 0 8 -4 -1 -15 -7 -9 -10 -18 -7 -21 6 -7 90 82 98 104 3 9 17 19 30 22
13 3 25 14 27 23 3 14 -5 17 -43 17 -38 0 -46 3 -41 15 3 8 1 15 -4 15 -6 0
-10 -4 -10 -10 0 -5 -10 -9 -22 -9 -16 1 -18 3 -6 6 15 4 33 31 26 39 -2 1
-19 -10 -37 -27z m64 -79 c3 -5 1 -19 -5 -31 -9 -16 -17 -19 -38 -14 -38 9
-48 21 -32 40 14 17 65 21 75 5z m-92 -49 c9 -10 8 -15 -7 -27 -25 -18 -67
-18 -91 -1 -17 13 -17 14 3 29 25 17 77 17 95 -1z m37 -11 c0 -5 -2 -10 -4
-10 -3 0 -8 5 -11 10 -3 6 -1 10 4 10 6 0 11 -4 11 -10z m-220 -153 c0 -17
-54 -57 -77 -57 -34 0 -37 18 -7 43 27 23 84 33 84 14z m-153 -73 c-3 -3 -12
-4 -19 -1 -8 3 -5 6 6 6 11 1 17 -2 13 -5z m148 -4 c-3 -5 -34 -9 -68 -8 l-62
1 65 7 c36 4 66 7 68 8 2 1 0 -2 -3 -8z"/>
<path d="M2907 1573 c-3 -5 21 -8 53 -8 32 0 53 3 47 7 -16 10 -95 10 -100 1z"/>
<path d="M2978 1503 c7 -3 16 -2 19 1 4 3 -2 6 -13 5 -11 0 -14 -3 -6 -6z"/>
<path d="M3220 1430 c0 -5 5 -10 11 -10 5 0 7 5 4 10 -3 6 -8 10 -11 10 -2 0
-4 -4 -4 -10z"/>
<path d="M2658 1413 c6 -2 18 -2 25 0 6 3 1 5 -13 5 -14 0 -19 -2 -12 -5z"/>
<path d="M3050 1315 c0 -8 5 -15 10 -15 6 0 10 7 10 15 0 8 -4 15 -10 15 -5 0
-10 -7 -10 -15z"/>
<path d="M3009 1303 c-36 -44 -41 -53 -30 -53 6 0 14 8 18 18 3 9 15 25 27 34
12 10 16 18 10 18 -6 0 -17 -8 -25 -17z"/>
<path d="M2386 1221 c-38 -40 -66 -77 -63 -84 4 -10 47 -17 149 -26 78 -6 161
-14 184 -17 39 -6 42 -4 105 61 60 62 82 95 62 95 -5 0 -14 -5 -21 -12 -8 -8
-12 -8 -12 -1 0 6 -12 8 -27 6 -22 -4 -25 -2 -13 7 12 8 8 9 -15 3 -16 -4 -67
-7 -113 -6 -45 1 -80 -1 -78 -6 3 -5 18 -7 33 -5 27 4 28 3 3 -5 -25 -8 -53 0
-65 20 -5 7 14 10 56 9 117 -3 152 2 74 10 -38 4 -97 11 -130 15 l-60 7 -69
-71z m114 19 c13 -9 13 -12 -3 -24 -13 -10 -15 -16 -7 -21 9 -6 9 -10 -1 -17
-9 -6 7 -8 46 -5 33 2 68 -1 77 -7 13 -8 21 -7 30 3 7 8 8 11 3 8 -6 -3 -22 3
-35 14 -21 16 -23 20 -10 29 19 12 90 13 90 1 0 -5 -7 -14 -15 -21 -8 -7 -15
-21 -15 -31 0 -25 40 -26 41 -1 1 16 2 16 6 -1 4 -16 6 -15 23 5 11 13 19 18
20 12 0 -6 -9 -19 -19 -28 -18 -16 -31 -17 -170 -6 -152 12 -264 32 -152 27
36 -1 56 2 58 11 3 6 -2 12 -11 12 -23 0 -28 17 -10 34 18 18 33 20 54 6z m53
-57 c-7 -2 -19 -2 -25 0 -7 3 -2 5 12 5 14 0 19 -2 13 -5z"/>
<path d="M2940 1233 c-9 -10 -33 -37 -53 -60 -33 -36 -35 -42 -18 -40 12 1 21
5 21 10 0 16 47 66 55 59 5 -4 5 -2 1 5 -3 6 -1 15 5 19 9 5 10 -2 6 -24 -4
-19 -2 -32 3 -32 6 0 10 8 10 18 0 10 5 23 12 30 9 9 8 12 -4 12 -9 0 -18 5
-20 10 -2 6 -10 2 -18 -7z"/>
<path d="M2914 1158 c-5 -8 -2 -9 9 -5 10 3 17 2 17 -3 0 -6 5 -10 11 -10 8 0
8 5 -1 15 -15 18 -26 19 -36 3z"/>
<path d="M3040 1138 c0 -13 8 -18 25 -18 16 0 25 6 25 15 0 18 -16 20 -23 3
-4 -10 -8 -9 -16 2 -9 13 -11 13 -11 -2z"/>
<path d="M4310 985 c-8 -9 -8 -15 -2 -15 12 0 26 19 19 26 -2 2 -10 -2 -17
-11z"/>
<path d="M1833 270 c-8 -12 -9 -21 -3 -25 6 -3 10 -1 10 6 0 6 8 18 18 25 14
11 14 13 2 14 -8 0 -21 -9 -27 -20z"/>
<path d="M1660 260 c0 -5 5 -10 10 -10 6 0 10 5 10 10 0 6 -4 10 -10 10 -5 0
-10 -4 -10 -10z"/>
<path d="M2058 163 c7 -3 16 -2 19 1 4 3 -2 6 -13 5 -11 0 -14 -3 -6 -6z"/>
</g>
</svg>
